<svg width="484" height="347" viewBox="0 0 484 347" fill="none" xmlns="http://www.w3.org/2000/svg">
<rect x="257" y="173.713" width="227" height="74" fill="#90CBF0"/>
<rect y="173.57" width="227.183" height="74.0813" fill="#F09294"/>
<g clip-path="url(#clip0_99_743)">
<path d="M122.5 209.695H121V205.695C121 204.595 120.1 203.695 119 203.695H115V202.195C115 200.815 113.88 199.695 112.5 199.695C111.12 199.695 110 200.815 110 202.195V203.695H106C104.9 203.695 104.01 204.595 104.01 205.695V209.495H105.5C106.99 209.495 108.2 210.705 108.2 212.195C108.2 213.685 106.99 214.895 105.5 214.895H104V218.695C104 219.795 104.9 220.695 106 220.695H109.8V219.195C109.8 217.705 111.01 216.495 112.5 216.495C113.99 216.495 115.2 217.705 115.2 219.195V220.695H119C120.1 220.695 121 219.795 121 218.695V214.695H122.5C123.88 214.695 125 213.575 125 212.195C125 210.815 123.88 209.695 122.5 209.695Z" fill="#EEF6FF"/>
</g>
<rect x="257" y="0.713013" width="98.7751" height="148.163" fill="#A2DF76"/>
<rect x="256.816" y="272.345" width="98.7751" height="74.0813" fill="#D2A4DB"/>
<rect y="272.345" width="103.714" height="74.0813" fill="#F09294"/>
<rect x="380" y="0.713013" width="103.714" height="148.163" fill="#A2DF76"/>
<rect x="380.284" y="272.345" width="103.714" height="74.0813" fill="#D2A4DB"/>
<rect x="128.406" y="272.345" width="98.7751" height="74.0813" fill="#F09294"/>
<rect y="0.713013" width="103.714" height="148.163" fill="#F09294"/>
<g clip-path="url(#clip1_99_743)">
<path d="M182.54 308.572L179 305.032L180.41 303.622L182.53 305.742L186.77 301.502L188.18 302.912L182.54 308.572ZM177 304.572H168V306.572H177V304.572ZM187 310.982L185.59 309.572L183 312.162L180.41 309.572L179 310.982L181.59 313.572L179 316.162L180.41 317.572L183 314.982L185.59 317.572L187 316.162L184.41 313.572L187 310.982ZM177 312.572H168V314.572H177V312.572Z" fill="#EEF6FF"/>
</g>
<rect x="128.406" y="0.713013" width="98.7751" height="148.163" fill="#F09294"/>
<g clip-path="url(#clip2_99_743)">
<path d="M177 78.5718H175C175 73.6018 179.03 69.5718 184 69.5718V71.5718C180.13 71.5718 177 74.7018 177 78.5718ZM184 75.5718V73.5718C181.24 73.5718 179 75.8118 179 78.5718H181C181 76.9118 182.34 75.5718 184 75.5718ZM173 68.5718C173 67.4618 172.11 66.5718 171 66.5718C169.89 66.5718 169 67.4618 169 68.5718C169 69.6818 169.89 70.5718 171 70.5718C172.11 70.5718 173 69.6818 173 68.5718ZM177.45 69.0718H175.45C175.21 70.4918 173.99 71.5718 172.5 71.5718H169.5C168.67 71.5718 168 72.2418 168 73.0718V75.5718H174V73.3118C175.86 72.7218 177.25 71.0818 177.45 69.0718ZM185 81.5718C186.11 81.5718 187 80.6818 187 79.5718C187 78.4618 186.11 77.5718 185 77.5718C183.89 77.5718 183 78.4618 183 79.5718C183 80.6818 183.89 81.5718 185 81.5718ZM186.5 82.5718H183.5C182.01 82.5718 180.79 81.4918 180.55 80.0718H178.55C178.75 82.0818 180.14 83.7218 182 84.3118V86.5718H188V84.0718C188 83.2418 187.33 82.5718 186.5 82.5718Z" fill="#EEF6FF"/>
</g>
<g clip-path="url(#clip3_99_743)">
<path d="M51.99 299.572C46.47 299.572 42 304.052 42 309.572C42 315.092 46.47 319.572 51.99 319.572C57.52 319.572 62 315.092 62 309.572C62 304.052 57.52 299.572 51.99 299.572ZM58.92 305.572H55.97C55.65 304.322 55.19 303.122 54.59 302.012C56.43 302.642 57.96 303.922 58.92 305.572ZM52 301.612C52.83 302.812 53.48 304.142 53.91 305.572H50.09C50.52 304.142 51.17 302.812 52 301.612ZM44.26 311.572C44.1 310.932 44 310.262 44 309.572C44 308.882 44.1 308.212 44.26 307.572H47.64C47.56 308.232 47.5 308.892 47.5 309.572C47.5 310.252 47.56 310.912 47.64 311.572H44.26ZM45.08 313.572H48.03C48.35 314.822 48.81 316.022 49.41 317.132C47.57 316.502 46.04 315.232 45.08 313.572ZM48.03 305.572H45.08C46.04 303.912 47.57 302.642 49.41 302.012C48.81 303.122 48.35 304.322 48.03 305.572ZM52 317.532C51.17 316.332 50.52 315.002 50.09 313.572H53.91C53.48 315.002 52.83 316.332 52 317.532ZM54.34 311.572H49.66C49.57 310.912 49.5 310.252 49.5 309.572C49.5 308.892 49.57 308.222 49.66 307.572H54.34C54.43 308.222 54.5 308.892 54.5 309.572C54.5 310.252 54.43 310.912 54.34 311.572ZM54.59 317.132C55.19 316.022 55.65 314.822 55.97 313.572H58.92C57.96 315.222 56.43 316.502 54.59 317.132ZM56.36 311.572C56.44 310.912 56.5 310.252 56.5 309.572C56.5 308.892 56.44 308.232 56.36 307.572H59.74C59.9 308.212 60 308.882 60 309.572C60 310.262 59.9 310.932 59.74 311.572H56.36Z" fill="#EEF6FF"/>
</g>
<g clip-path="url(#clip4_99_743)">
<path d="M50 80.5718V79.5718H43.01L43 83.5718C43 84.6818 43.89 85.5718 45 85.5718H59C60.11 85.5718 61 84.6818 61 83.5718V79.5718H54V80.5718H50ZM60 71.5718H55.99V69.5718L53.99 67.5718H49.99L47.99 69.5718V71.5718H44C42.9 71.5718 42 72.4718 42 73.5718V76.5718C42 77.6818 42.89 78.5718 44 78.5718H50V76.5718H54V78.5718H60C61.1 78.5718 62 77.6718 62 76.5718V73.5718C62 72.4718 61.1 71.5718 60 71.5718ZM54 71.5718H50V69.5718H54V71.5718Z" fill="#EEF6FF"/>
</g>
<g clip-path="url(#clip5_99_743)">
<path fill-rule="evenodd" clip-rule="evenodd" d="M310.67 77.7018C312.04 78.6318 313 79.8918 313 81.5718V84.5718H317V81.5718C317 79.3918 313.43 78.1018 310.67 77.7018Z" fill="#EEF6FF"/>
<path d="M303 76.5718C305.209 76.5718 307 74.7809 307 72.5718C307 70.3626 305.209 68.5718 303 68.5718C300.791 68.5718 299 70.3626 299 72.5718C299 74.7809 300.791 76.5718 303 76.5718Z" fill="#EEF6FF"/>
<path fill-rule="evenodd" clip-rule="evenodd" d="M309 76.5718C311.21 76.5718 313 74.7818 313 72.5718C313 70.3618 311.21 68.5718 309 68.5718C308.53 68.5718 308.09 68.6718 307.67 68.8118C308.5 69.8418 309 71.1518 309 72.5718C309 73.9918 308.5 75.3018 307.67 76.3318C308.09 76.4718 308.53 76.5718 309 76.5718Z" fill="#EEF6FF"/>
<path fill-rule="evenodd" clip-rule="evenodd" d="M303 77.5718C300.33 77.5718 295 78.9118 295 81.5718V84.5718H311V81.5718C311 78.9118 305.67 77.5718 303 77.5718Z" fill="#EEF6FF"/>
</g>
<g clip-path="url(#clip6_99_743)">
<path d="M443 72.5718C443 73.6718 442.1 74.5718 441 74.5718C440.82 74.5718 440.65 74.5518 440.49 74.5018L436.93 78.0518C436.98 78.2118 437 78.3918 437 78.5718C437 79.6718 436.1 80.5718 435 80.5718C433.9 80.5718 433 79.6718 433 78.5718C433 78.3918 433.02 78.2118 433.07 78.0518L430.52 75.5018C430.36 75.5518 430.18 75.5718 430 75.5718C429.82 75.5718 429.64 75.5518 429.48 75.5018L424.93 80.0618C424.98 80.2218 425 80.3918 425 80.5718C425 81.6718 424.1 82.5718 423 82.5718C421.9 82.5718 421 81.6718 421 80.5718C421 79.4718 421.9 78.5718 423 78.5718C423.18 78.5718 423.35 78.5918 423.51 78.6418L428.07 74.0918C428.02 73.9318 428 73.7518 428 73.5718C428 72.4718 428.9 71.5718 430 71.5718C431.1 71.5718 432 72.4718 432 73.5718C432 73.7518 431.98 73.9318 431.93 74.0918L434.48 76.6418C434.64 76.5918 434.82 76.5718 435 76.5718C435.18 76.5718 435.36 76.5918 435.52 76.6418L439.07 73.0818C439.02 72.9218 439 72.7518 439 72.5718C439 71.4718 439.9 70.5718 441 70.5718C442.1 70.5718 443 71.4718 443 72.5718Z" fill="#EEF6FF"/>
</g>
<g clip-path="url(#clip7_99_743)">
<path d="M374.904 211.746L372.783 213.867L378.779 219.863L380.9 217.742L374.904 211.746Z" fill="#EEF6FF"/>
<path d="M376.5 208.695C378.43 208.695 380 207.125 380 205.195C380 204.615 379.84 204.075 379.59 203.595L376.89 206.295L375.4 204.805L378.1 202.105C377.62 201.855 377.08 201.695 376.5 201.695C374.57 201.695 373 203.265 373 205.195C373 205.605 373.08 205.995 373.21 206.355L371.36 208.205L369.58 206.425L370.29 205.715L368.88 204.305L371 202.185C369.83 201.015 367.93 201.015 366.76 202.185L363.22 205.725L364.63 207.135H361.81L361.1 207.845L364.64 211.385L365.35 210.675V207.845L366.76 209.255L367.47 208.545L369.25 210.325L361.84 217.735L363.96 219.855L375.34 208.485C375.7 208.615 376.09 208.695 376.5 208.695Z" fill="#EEF6FF"/>
</g>
<g clip-path="url(#clip8_99_743)">
<path d="M314 305.713H311.19C310.74 304.933 310.12 304.263 309.37 303.753L311 302.123L309.59 300.713L307.42 302.883C306.96 302.773 306.49 302.713 306 302.713C305.51 302.713 305.04 302.773 304.59 302.883L302.41 300.713L301 302.123L302.62 303.753C301.88 304.263 301.26 304.933 300.81 305.713H298V307.713H300.09C300.04 308.043 300 308.373 300 308.713V309.713H298V311.713H300V312.713C300 313.053 300.04 313.383 300.09 313.713H298V315.713H300.81C301.85 317.503 303.78 318.713 306 318.713C308.22 318.713 310.15 317.503 311.19 315.713H314V313.713H311.91C311.96 313.383 312 313.053 312 312.713V311.713H314V309.713H312V308.713C312 308.373 311.96 308.043 311.91 307.713H314V305.713ZM308 313.713H304V311.713H308V313.713ZM308 309.713H304V307.713H308V309.713Z" fill="#EEF6FF"/>
</g>
<g clip-path="url(#clip9_99_743)">
<path d="M422 310.213C422 307.173 424.46 304.713 427.5 304.713H438C440.21 304.713 442 306.503 442 308.713C442 310.923 440.21 312.713 438 312.713H429.5C428.12 312.713 427 311.593 427 310.213C427 308.833 428.12 307.713 429.5 307.713H437V309.713H429.41C428.86 309.713 428.86 310.713 429.41 310.713H438C439.1 310.713 440 309.813 440 308.713C440 307.613 439.1 306.713 438 306.713H427.5C425.57 306.713 424 308.283 424 310.213C424 312.143 425.57 313.713 427.5 313.713H437V315.713H427.5C424.46 315.713 422 313.253 422 310.213Z" fill="#EEF6FF"/>
</g>
<defs>
<clipPath id="clip0_99_743">
<rect width="24" height="24" fill="white" transform="translate(102 198.695)"/>
</clipPath>
<clipPath id="clip1_99_743">
<rect width="24" height="24" fill="white" transform="translate(166 297.572)"/>
</clipPath>
<clipPath id="clip2_99_743">
<rect width="24" height="24" fill="white" transform="translate(166 64.5718)"/>
</clipPath>
<clipPath id="clip3_99_743">
<rect width="24" height="24" fill="white" transform="translate(40 297.572)"/>
</clipPath>
<clipPath id="clip4_99_743">
<rect width="24" height="24" fill="white" transform="translate(40 64.5718)"/>
</clipPath>
<clipPath id="clip5_99_743">
<rect width="24" height="24" fill="white" transform="translate(294 64.5718)"/>
</clipPath>
<clipPath id="clip6_99_743">
<rect width="24" height="24" fill="white" transform="translate(420 64.5718)"/>
</clipPath>
<clipPath id="clip7_99_743">
<rect width="24" height="24" fill="white" transform="translate(359 198.695)"/>
</clipPath>
<clipPath id="clip8_99_743">
<rect width="24" height="24" fill="white" transform="translate(294 297.713)"/>
</clipPath>
<clipPath id="clip9_99_743">
<rect width="24" height="24" fill="white" transform="translate(420 297.713)"/>
</clipPath>
</defs>
</svg>
