<svg width="217" height="84" viewBox="0 0 217 84" fill="none" xmlns="http://www.w3.org/2000/svg">
<path d="M139.915 30.2051C138.535 30.2051 137.333 29.9186 136.311 29.3457C135.289 28.7663 134.498 27.9492 133.938 26.8945C133.385 25.8333 133.108 24.5801 133.108 23.1348V22.6562C133.108 21.276 133.375 20.0553 133.909 18.9941C134.449 17.9264 135.218 17.0898 136.214 16.4844C137.21 15.8789 138.395 15.5762 139.768 15.5762C140.732 15.5762 141.634 15.7129 142.473 15.9863C143.32 16.2598 144.075 16.6764 144.739 17.2363V20.6738H142.62L142.327 18.5156C142.112 18.3594 141.878 18.2259 141.624 18.1152C141.37 18.0046 141.093 17.9199 140.794 17.8613C140.501 17.8027 140.182 17.7734 139.837 17.7734C139.029 17.7734 138.336 17.972 137.757 18.3691C137.177 18.7663 136.731 19.3294 136.419 20.0586C136.113 20.7812 135.96 21.6406 135.96 22.6367V23.1348C135.96 24.1309 136.122 24.9935 136.448 25.7227C136.774 26.4518 137.236 27.0182 137.835 27.4219C138.434 27.819 139.143 28.0176 139.964 28.0176C140.374 28.0176 140.784 27.972 141.194 27.8809C141.611 27.7832 141.988 27.6595 142.327 27.5098L142.62 25.5078H144.739V28.9062C144.186 29.2708 143.496 29.5801 142.669 29.834C141.842 30.0814 140.924 30.2051 139.915 30.2051Z" fill="#1399ED"/>
<path d="M151.045 30.2051C150.003 30.2051 149.108 29.9772 148.359 29.5215C147.611 29.0658 147.038 28.4342 146.641 27.627C146.243 26.8132 146.045 25.8789 146.045 24.8242V24.6191C146.045 23.571 146.243 22.6432 146.641 21.8359C147.038 21.0221 147.607 20.3874 148.349 19.9316C149.098 19.4694 149.99 19.2383 151.025 19.2383C152.073 19.2383 152.969 19.4694 153.711 19.9316C154.453 20.3874 155.023 21.0189 155.42 21.8262C155.817 22.6335 156.016 23.5645 156.016 24.6191V24.8242C156.016 25.8789 155.817 26.8132 155.42 27.627C155.023 28.4342 154.453 29.0658 153.711 29.5215C152.969 29.9772 152.08 30.2051 151.045 30.2051ZM151.045 28.0176C151.54 28.0176 151.943 27.8841 152.256 27.6172C152.568 27.3503 152.799 26.9792 152.949 26.5039C153.099 26.0221 153.174 25.4622 153.174 24.8242V24.6191C153.174 23.9941 153.099 23.444 152.949 22.9688C152.799 22.487 152.565 22.1126 152.246 21.8457C151.933 21.5723 151.527 21.4355 151.025 21.4355C150.537 21.4355 150.133 21.5723 149.814 21.8457C149.495 22.1126 149.261 22.487 149.111 22.9688C148.968 23.444 148.896 23.9941 148.896 24.6191V24.8242C148.896 25.4622 148.968 26.0221 149.111 26.5039C149.261 26.9857 149.495 27.36 149.814 27.627C150.133 27.8874 150.544 28.0176 151.045 28.0176Z" fill="#1399ED"/>
<path d="M157.067 30V28.291L158.444 27.998V21.4453L156.921 21.1523V19.4336H161.091L161.208 20.8301C161.547 20.3223 161.97 19.9316 162.478 19.6582C162.992 19.3783 163.584 19.2383 164.255 19.2383C164.932 19.2383 165.511 19.388 165.993 19.6875C166.481 19.987 166.846 20.4395 167.087 21.0449C167.412 20.4785 167.836 20.0358 168.356 19.7168C168.877 19.3978 169.489 19.2383 170.192 19.2383C171.234 19.2383 172.054 19.5931 172.653 20.3027C173.259 21.0124 173.562 22.0931 173.562 23.5449V27.998L174.938 28.291V30H169.479V28.291L170.71 27.998V23.5352C170.71 22.7539 170.58 22.2135 170.319 21.9141C170.065 21.6081 169.694 21.4551 169.206 21.4551C168.763 21.4551 168.389 21.582 168.083 21.8359C167.777 22.0833 167.556 22.4121 167.419 22.8223V27.998L168.571 28.291V30H163.425V28.291L164.577 27.998V23.5352C164.577 22.7734 164.447 22.2363 164.187 21.9238C163.933 21.6113 163.555 21.4551 163.054 21.4551C162.65 21.4551 162.302 21.5365 162.009 21.6992C161.716 21.862 161.475 22.0964 161.286 22.4023V27.998L162.517 28.291V30H157.067Z" fill="#1399ED"/>
<path d="M175.717 34.0625V32.3438L177.094 32.0508V21.4453L175.57 21.1523V19.4336H179.711L179.848 20.6641C180.16 20.2083 180.538 19.8568 180.981 19.6094C181.423 19.362 181.951 19.2383 182.563 19.2383C183.415 19.2383 184.145 19.4727 184.75 19.9414C185.356 20.4036 185.818 21.0514 186.137 21.8848C186.462 22.7181 186.625 23.6914 186.625 24.8047V25.0098C186.625 26.0514 186.462 26.9629 186.137 27.7441C185.818 28.5189 185.352 29.1243 184.74 29.5605C184.135 29.9902 183.402 30.2051 182.543 30.2051C181.977 30.2051 181.475 30.1042 181.039 29.9023C180.609 29.694 180.242 29.3913 179.936 28.9941V32.0508L181.313 32.3438V34.0625H175.717ZM181.693 28.0176C182.423 28.0176 182.95 27.7474 183.275 27.207C183.608 26.6667 183.774 25.9342 183.774 25.0098V24.8047C183.774 24.1341 183.699 23.5514 183.549 23.0566C183.399 22.5553 183.168 22.1647 182.856 21.8848C182.55 21.5983 182.156 21.4551 181.674 21.4551C181.283 21.4551 180.938 21.543 180.639 21.7188C180.346 21.8945 180.111 22.1452 179.936 22.4707V27.0996C180.111 27.3991 180.346 27.627 180.639 27.7832C180.938 27.9395 181.29 28.0176 181.693 28.0176Z" fill="#1399ED"/>
<path d="M187.423 30V28.291L188.8 27.998V16.7773L187.277 16.4844V14.7656H191.652V27.998L193.029 28.291V30H187.423Z" fill="#1399ED"/>
<path d="M198.709 30.2051C197.7 30.2051 196.818 29.9837 196.063 29.541C195.308 29.0918 194.722 28.4766 194.305 27.6953C193.895 26.9141 193.69 26.0221 193.69 25.0195V24.6289C193.69 23.5807 193.885 22.653 194.276 21.8457C194.666 21.0319 195.216 20.3939 195.926 19.9316C196.642 19.4694 197.485 19.2383 198.455 19.2383C199.412 19.2383 200.216 19.4271 200.868 19.8047C201.519 20.1823 202.013 20.7259 202.352 21.4355C202.69 22.1452 202.86 23.0046 202.86 24.0137V25.5664H196.649L196.629 25.625C196.668 26.0872 196.782 26.5007 196.971 26.8652C197.166 27.2233 197.44 27.5065 197.791 27.7148C198.143 27.9167 198.569 28.0176 199.071 28.0176C199.591 28.0176 200.077 27.9525 200.526 27.8223C200.981 27.6855 201.424 27.487 201.854 27.2266L202.625 28.9844C202.189 29.3359 201.639 29.6289 200.975 29.8633C200.317 30.0911 199.562 30.2051 198.709 30.2051ZM196.668 23.6816H200.194V23.4277C200.194 22.998 200.135 22.6302 200.018 22.3242C199.907 22.0117 199.725 21.7708 199.471 21.6016C199.224 21.4323 198.901 21.3477 198.504 21.3477C198.127 21.3477 197.808 21.4486 197.547 21.6504C197.287 21.8457 197.082 22.1159 196.932 22.4609C196.789 22.806 196.691 23.1966 196.639 23.6328L196.668 23.6816Z" fill="#1399ED"/>
<path d="M203.736 30V28.291L205.093 28.1152L208.121 24.707L205.259 21.3184L203.98 21.1523V19.4336H209.214V21.0742L208.394 21.2012L209.927 23.2129L211.46 21.2012L210.552 21.0742V19.4336H215.601V21.1523L214.419 21.3184L211.714 24.5898L214.732 28.1152L216.031 28.291V30H210.611V28.3691L211.529 28.2422L209.898 26.2207L208.306 28.252L209.205 28.3691V30H203.736Z" fill="#1399ED"/>
<path d="M133.147 50V48.291L134.661 47.998V37.793L133.147 37.5V35.7812H139.026V37.5L137.512 37.793V47.998L139.026 48.291V50H133.147Z" fill="#1399ED"/>
<path d="M139.961 50V48.291L141.328 47.998V41.4453L139.814 41.1523V39.4336H143.984L144.111 40.9473C144.463 40.4069 144.896 39.987 145.41 39.6875C145.931 39.388 146.523 39.2383 147.187 39.2383C148.236 39.2383 149.056 39.5736 149.648 40.2441C150.241 40.9147 150.537 41.9661 150.537 43.3984V47.998L151.904 48.291V50H146.455V48.291L147.676 47.998V43.4082C147.676 42.6986 147.536 42.1973 147.256 41.9043C146.976 41.6048 146.559 41.4551 146.006 41.4551C145.596 41.4551 145.238 41.543 144.932 41.7188C144.632 41.888 144.381 42.1322 144.18 42.4512V47.998L145.332 48.291V50H139.961Z" fill="#1399ED"/>
<path d="M156.52 50.2051C155.537 50.2051 154.779 49.9349 154.245 49.3945C153.718 48.8542 153.454 47.998 153.454 46.8262V41.4355H151.999V39.4336H153.454V36.8457H156.296V39.4336H158.239V41.4355H156.296V46.8164C156.296 47.2266 156.381 47.5195 156.55 47.6953C156.726 47.8711 156.963 47.959 157.263 47.959C157.419 47.959 157.588 47.9492 157.77 47.9297C157.953 47.9036 158.109 47.8776 158.239 47.8516L158.483 49.9121C158.19 49.9967 157.871 50.0651 157.526 50.1172C157.188 50.1758 156.853 50.2051 156.52 50.2051Z" fill="#1399ED"/>
<path d="M164.242 50.2051C163.233 50.2051 162.351 49.9837 161.596 49.541C160.841 49.0918 160.255 48.4766 159.838 47.6953C159.428 46.9141 159.223 46.0221 159.223 45.0195V44.6289C159.223 43.5807 159.418 42.653 159.809 41.8457C160.199 41.0319 160.749 40.3939 161.459 39.9316C162.175 39.4694 163.018 39.2383 163.988 39.2383C164.945 39.2383 165.749 39.4271 166.4 39.8047C167.052 40.1823 167.546 40.7259 167.885 41.4355C168.223 42.1452 168.393 43.0046 168.393 44.0137V45.5664H162.182L162.162 45.625C162.201 46.0872 162.315 46.5007 162.504 46.8652C162.699 47.2233 162.973 47.5065 163.324 47.7148C163.676 47.9167 164.102 48.0176 164.604 48.0176C165.124 48.0176 165.609 47.9525 166.059 47.8223C166.514 47.6855 166.957 47.487 167.387 47.2266L168.158 48.9844C167.722 49.3359 167.172 49.6289 166.508 49.8633C165.85 50.0911 165.095 50.2051 164.242 50.2051ZM162.201 43.6816H165.727V43.4277C165.727 42.998 165.668 42.6302 165.551 42.3242C165.44 42.0117 165.258 41.7708 165.004 41.6016C164.757 41.4323 164.434 41.3477 164.037 41.3477C163.66 41.3477 163.341 41.4486 163.08 41.6504C162.82 41.8457 162.615 42.1159 162.465 42.4609C162.322 42.806 162.224 43.1966 162.172 43.6328L162.201 43.6816Z" fill="#1399ED"/>
<path d="M169.806 50V48.291L171.173 47.998V41.4453L169.659 41.1523V39.4336H173.829L173.937 40.7422L173.956 40.9766C174.217 40.4036 174.539 39.9707 174.923 39.6777C175.307 39.3848 175.766 39.2383 176.3 39.2383C176.469 39.2383 176.655 39.2546 176.857 39.2871C177.059 39.3132 177.238 39.349 177.394 39.3945L177.091 42.0215L175.675 41.9434C175.271 41.9238 174.943 41.9922 174.689 42.1484C174.441 42.3047 174.22 42.5293 174.025 42.8223V47.998L175.392 48.291V50H169.806Z" fill="#1399ED"/>
<path d="M178.475 50V48.291L179.852 47.998V41.4355H178.28V39.4336H179.852V38.2617C179.852 37.0768 180.19 36.1654 180.868 35.5273C181.551 34.8828 182.505 34.5605 183.729 34.5605C184.035 34.5605 184.357 34.5866 184.696 34.6387C185.034 34.6842 185.324 34.7396 185.565 34.8047L185.321 36.9238C185.164 36.8783 184.985 36.8457 184.784 36.8262C184.582 36.8001 184.377 36.7871 184.168 36.7871C183.674 36.7871 183.306 36.9141 183.065 37.168C182.824 37.4219 182.703 37.7865 182.703 38.2617V39.4336H185.096V41.4355H182.703V47.998L184.569 48.291V50H178.475Z" fill="#1399ED"/>
<path d="M189.546 50.2051C188.498 50.2051 187.665 49.9251 187.046 49.3652C186.428 48.7988 186.119 48.0306 186.119 47.0605C186.119 46.0645 186.522 45.2572 187.33 44.6387C188.137 44.0137 189.318 43.7012 190.874 43.7012H192.271V42.9199C192.271 42.4121 192.121 42.002 191.822 41.6895C191.529 41.3704 191.086 41.2109 190.494 41.2109C190.188 41.2109 189.911 41.25 189.664 41.3281C189.423 41.3997 189.205 41.5039 189.009 41.6406L188.785 43.0371H186.734L186.695 40.293C187.248 39.9805 187.847 39.7266 188.492 39.5312C189.136 39.3359 189.856 39.2383 190.65 39.2383C192.03 39.2383 193.121 39.5605 193.921 40.2051C194.722 40.8431 195.123 41.7578 195.123 42.9492V47.3047C195.123 47.4479 195.123 47.5911 195.123 47.7344C195.129 47.8711 195.142 48.0046 195.162 48.1348L196.265 48.291V50H192.73C192.658 49.8177 192.587 49.6224 192.515 49.4141C192.443 49.2057 192.391 48.9974 192.359 48.7891C192.02 49.2188 191.62 49.5638 191.158 49.8242C190.702 50.0781 190.165 50.2051 189.546 50.2051ZM190.308 48.0957C190.705 48.0957 191.083 48.0078 191.441 47.832C191.799 47.6497 192.076 47.4121 192.271 47.1191V45.4492H190.865C190.24 45.4492 189.764 45.5924 189.439 45.8789C189.12 46.1654 188.96 46.5104 188.96 46.9141C188.96 47.2917 189.078 47.5846 189.312 47.793C189.553 47.9948 189.885 48.0957 190.308 48.0957Z" fill="#1399ED"/>
<path d="M202.131 50.2051C201.116 50.2051 200.237 49.9772 199.495 49.5215C198.759 49.0658 198.193 48.4375 197.796 47.6367C197.398 46.8294 197.2 45.9082 197.2 44.873V44.5801C197.2 43.5384 197.402 42.6172 197.805 41.8164C198.209 41.0156 198.779 40.3874 199.514 39.9316C200.25 39.4694 201.116 39.2383 202.112 39.2383C203.062 39.2383 203.879 39.388 204.563 39.6875C205.253 39.9805 205.813 40.3223 206.243 40.7129L206.223 43.7402H204.075L203.694 41.8555C203.538 41.6992 203.339 41.5723 203.098 41.4746C202.857 41.377 202.613 41.3281 202.366 41.3281C201.845 41.3281 201.412 41.4583 201.067 41.7188C200.728 41.9792 200.475 42.3503 200.305 42.832C200.136 43.3138 200.051 43.8965 200.051 44.5801V44.873C200.051 45.5957 200.146 46.1914 200.335 46.6602C200.523 47.1224 200.774 47.4642 201.087 47.6855C201.406 47.9069 201.76 48.0176 202.151 48.0176C202.652 48.0176 203.053 47.8874 203.352 47.627C203.658 47.36 203.87 46.9857 203.987 46.5039H206.419L206.448 46.5625C206.337 47.3112 206.116 47.959 205.784 48.5059C205.458 49.0527 204.996 49.4727 204.397 49.7656C203.805 50.0586 203.049 50.2051 202.131 50.2051Z" fill="#1399ED"/>
<path d="M212.666 50.2051C211.657 50.2051 210.774 49.9837 210.019 49.541C209.264 49.0918 208.678 48.4766 208.261 47.6953C207.851 46.9141 207.646 46.0221 207.646 45.0195V44.6289C207.646 43.5807 207.842 42.653 208.232 41.8457C208.623 41.0319 209.173 40.3939 209.883 39.9316C210.599 39.4694 211.442 39.2383 212.412 39.2383C213.369 39.2383 214.173 39.4271 214.824 39.8047C215.475 40.1823 215.97 40.7259 216.308 41.4355C216.647 42.1452 216.816 43.0046 216.816 44.0137V45.5664H210.605L210.586 45.625C210.625 46.0872 210.739 46.5007 210.927 46.8652C211.123 47.2233 211.396 47.5065 211.748 47.7148C212.099 47.9167 212.526 48.0176 213.027 48.0176C213.548 48.0176 214.033 47.9525 214.482 47.8223C214.938 47.6855 215.381 47.487 215.81 47.2266L216.582 48.9844C216.146 49.3359 215.595 49.6289 214.931 49.8633C214.274 50.0911 213.519 50.2051 212.666 50.2051ZM210.625 43.6816H214.15V43.4277C214.15 42.998 214.092 42.6302 213.974 42.3242C213.864 42.0117 213.681 41.7708 213.427 41.6016C213.18 41.4323 212.858 41.3477 212.461 41.3477C212.083 41.3477 211.764 41.4486 211.504 41.6504C211.243 41.8457 211.038 42.1159 210.888 42.4609C210.745 42.806 210.648 43.1966 210.595 43.6328L210.625 43.6816Z" fill="#1399ED"/>
<path d="M139.915 70.2051C138.535 70.2051 137.333 69.9186 136.311 69.3457C135.289 68.7663 134.498 67.9492 133.938 66.8945C133.385 65.8333 133.108 64.5801 133.108 63.1348V62.6562C133.108 61.276 133.375 60.0553 133.909 58.9941C134.449 57.9264 135.218 57.0898 136.214 56.4844C137.21 55.8789 138.395 55.5762 139.768 55.5762C140.732 55.5762 141.634 55.7129 142.473 55.9863C143.32 56.2598 144.075 56.6764 144.739 57.2363V60.6738H142.62L142.327 58.5156C142.112 58.3594 141.878 58.2259 141.624 58.1152C141.37 58.0046 141.093 57.9199 140.794 57.8613C140.501 57.8027 140.182 57.7734 139.837 57.7734C139.029 57.7734 138.336 57.972 137.757 58.3691C137.177 58.7663 136.731 59.3294 136.419 60.0586C136.113 60.7812 135.96 61.6406 135.96 62.6367V63.1348C135.96 64.1309 136.122 64.9935 136.448 65.7227C136.774 66.4518 137.236 67.0182 137.835 67.4219C138.434 67.819 139.143 68.0176 139.964 68.0176C140.374 68.0176 140.784 67.972 141.194 67.8809C141.611 67.7832 141.988 67.6595 142.327 67.5098L142.62 65.5078H144.739V68.9062C144.186 69.2708 143.496 69.5801 142.669 69.834C141.842 70.0814 140.924 70.2051 139.915 70.2051Z" fill="#1399ED"/>
<path d="M149.541 70.2051C148.493 70.2051 147.659 69.9251 147.041 69.3652C146.422 68.7988 146.113 68.0306 146.113 67.0605C146.113 66.0645 146.517 65.2572 147.324 64.6387C148.131 64.0137 149.313 63.7012 150.869 63.7012H152.266V62.9199C152.266 62.4121 152.116 62.002 151.816 61.6895C151.523 61.3704 151.081 61.2109 150.488 61.2109C150.182 61.2109 149.905 61.25 149.658 61.3281C149.417 61.3997 149.199 61.5039 149.004 61.6406L148.779 63.0371H146.728L146.689 60.293C147.243 59.9805 147.842 59.7266 148.486 59.5312C149.131 59.3359 149.85 59.2383 150.644 59.2383C152.025 59.2383 153.115 59.5605 153.916 60.2051C154.717 60.8431 155.117 61.7578 155.117 62.9492V67.3047C155.117 67.4479 155.117 67.5911 155.117 67.7344C155.124 67.8711 155.137 68.0046 155.156 68.1348L156.26 68.291V70H152.724C152.653 69.8177 152.581 69.6224 152.51 69.4141C152.438 69.2057 152.386 68.9974 152.353 68.7891C152.015 69.2188 151.614 69.5638 151.152 69.8242C150.696 70.0781 150.159 70.2051 149.541 70.2051ZM150.303 68.0957C150.7 68.0957 151.077 68.0078 151.435 67.832C151.794 67.6497 152.07 67.4121 152.266 67.1191V65.4492H150.859C150.234 65.4492 149.759 65.5924 149.433 65.8789C149.114 66.1654 148.955 66.5104 148.955 66.9141C148.955 67.2917 149.072 67.5846 149.307 67.793C149.547 67.9948 149.879 68.0957 150.303 68.0957Z" fill="#1399ED"/>
<path d="M157.048 70V68.291L158.415 67.998V61.4453L156.901 61.1523V59.4336H161.071L161.198 60.9473C161.55 60.4069 161.983 59.987 162.497 59.6875C163.018 59.388 163.61 59.2383 164.274 59.2383C165.323 59.2383 166.143 59.5736 166.735 60.2441C167.328 60.9147 167.624 61.9661 167.624 63.3984V67.998L168.991 68.291V70H163.542V68.291L164.763 67.998V63.4082C164.763 62.6986 164.623 62.1973 164.343 61.9043C164.063 61.6048 163.646 61.4551 163.093 61.4551C162.683 61.4551 162.325 61.543 162.019 61.7188C161.719 61.888 161.468 62.1322 161.267 62.4512V67.998L162.419 68.291V70H157.048Z" fill="#1399ED"/>
<path d="M172.963 70L169.77 61.3281L168.627 61.1523V59.4336H173.754V61.1426L172.641 61.3379L174.233 66.1328L174.477 66.9531H174.535L174.809 66.1328L176.557 61.3477L175.258 61.1426V59.4336H180.375V61.1523L179.203 61.3477L175.863 70H172.963Z" fill="#1399ED"/>
<path d="M184.474 70.2051C183.426 70.2051 182.592 69.9251 181.974 69.3652C181.355 68.7988 181.046 68.0306 181.046 67.0605C181.046 66.0645 181.45 65.2572 182.257 64.6387C183.064 64.0137 184.246 63.7012 185.802 63.7012H187.198V62.9199C187.198 62.4121 187.049 62.002 186.749 61.6895C186.456 61.3704 186.014 61.2109 185.421 61.2109C185.115 61.2109 184.838 61.25 184.591 61.3281C184.35 61.3997 184.132 61.5039 183.937 61.6406L183.712 63.0371H181.661L181.622 60.293C182.176 59.9805 182.775 59.7266 183.419 59.5312C184.064 59.3359 184.783 59.2383 185.577 59.2383C186.958 59.2383 188.048 59.5605 188.849 60.2051C189.65 60.8431 190.05 61.7578 190.05 62.9492V67.3047C190.05 67.4479 190.05 67.5911 190.05 67.7344C190.057 67.8711 190.07 68.0046 190.089 68.1348L191.193 68.291V70H187.657C187.586 69.8177 187.514 69.6224 187.443 69.4141C187.371 69.2057 187.319 68.9974 187.286 68.7891C186.948 69.2188 186.547 69.5638 186.085 69.8242C185.629 70.0781 185.092 70.2051 184.474 70.2051ZM185.236 68.0957C185.633 68.0957 186.01 68.0078 186.368 67.832C186.726 67.6497 187.003 67.4121 187.198 67.1191V65.4492H185.792C185.167 65.4492 184.692 65.5924 184.366 65.8789C184.047 66.1654 183.888 66.5104 183.888 66.9141C183.888 67.2917 184.005 67.5846 184.239 67.793C184.48 67.9948 184.812 68.0957 185.236 68.0957Z" fill="#1399ED"/>
<path d="M196.619 70.2051C195.832 70.2051 195.096 70.1302 194.412 69.9805C193.735 69.8307 193.084 69.6159 192.459 69.3359L192.43 66.3477H194.412L194.793 67.8711C195.015 67.9818 195.256 68.0697 195.516 68.1348C195.783 68.1999 196.086 68.2324 196.424 68.2324C197.062 68.2324 197.511 68.1283 197.772 67.9199C198.032 67.7116 198.162 67.4512 198.162 67.1387C198.162 66.8457 198.022 66.5885 197.743 66.3672C197.469 66.1393 196.919 65.9408 196.092 65.7715C194.842 65.5111 193.921 65.1074 193.328 64.5605C192.736 64.0137 192.44 63.3138 192.44 62.4609C192.44 61.875 192.586 61.3411 192.879 60.8594C193.179 60.3776 193.631 59.9902 194.237 59.6973C194.849 59.4043 195.63 59.2578 196.58 59.2578C197.375 59.2578 198.101 59.3359 198.758 59.4922C199.422 59.6419 199.979 59.8405 200.428 60.0879L200.457 62.9785H198.485L198.182 61.5918C198.006 61.4616 197.798 61.3639 197.557 61.2988C197.323 61.2337 197.056 61.2012 196.756 61.2012C196.255 61.2012 195.871 61.3021 195.604 61.5039C195.337 61.7057 195.203 61.9661 195.203 62.2852C195.203 62.4674 195.249 62.6367 195.34 62.793C195.438 62.9492 195.627 63.0957 195.907 63.2324C196.187 63.3691 196.593 63.4993 197.127 63.623C198.436 63.9225 199.39 64.3229 199.989 64.8242C200.588 65.319 200.887 66.0156 200.887 66.9141C200.887 67.8971 200.529 68.6914 199.813 69.2969C199.103 69.9023 198.039 70.2051 196.619 70.2051Z" fill="#1399ED"/>
<path d="M61.2005 42H117.6V60H61.2005V42Z" fill="#1399ED"/>
<path d="M0 42H55.2V60H0V42Z" fill="#1399ED"/>
<path d="M62.4001 0H86.4001V36H62.4001V0Z" fill="#1399ED"/>
<path d="M62.4001 66H86.4001V84H62.4001V66Z" fill="#1399ED"/>
<path d="M0 66H25.2V84H0V66Z" fill="#1399ED"/>
<path d="M92.4 0H117.6V36H92.4V0Z" fill="#1399ED"/>
<path d="M92.4 66H117.6V84H92.4V66Z" fill="#1399ED"/>
<path d="M31.1995 66H55.1995V84H31.1995V66Z" fill="#1399ED"/>
<path d="M0 0H25.2V36H0V0Z" fill="#1399ED"/>
<path d="M31.1995 0H55.1995V36H31.1995V0Z" fill="#1399ED"/>
</svg>
