<svg width="151" height="58" viewBox="0 0 151 58" fill="none" xmlns="http://www.w3.org/2000/svg">
<path d="M97.4427 20.8559C96.4815 20.8559 95.6449 20.6582 94.9331 20.2626C94.2212 19.8625 93.6703 19.2983 93.2804 18.5701C92.895 17.8374 92.7023 16.972 92.7023 15.9741V15.6437C92.7023 14.6907 92.8882 13.8478 93.26 13.1151C93.6363 12.3778 94.1713 11.8002 94.865 11.3821C95.5588 10.9641 96.384 10.755 97.3407 10.755C98.0117 10.755 98.6397 10.8494 99.2246 11.0382C99.814 11.227 100.34 11.5147 100.802 11.9013V14.2748H99.3266L99.1226 12.7847C98.973 12.6768 98.8097 12.5846 98.6329 12.5082C98.4561 12.4318 98.2634 12.3733 98.0548 12.3329C97.8508 12.2924 97.6286 12.2722 97.3883 12.2722C96.8261 12.2722 96.3432 12.4093 95.9396 12.6835C95.5361 12.9577 95.2255 13.3466 95.0079 13.85C94.7948 14.349 94.6882 14.9424 94.6882 15.6302V15.9741C94.6882 16.6618 94.8016 17.2575 95.0283 17.7609C95.255 18.2644 95.5769 18.6555 95.994 18.9342C96.4112 19.2084 96.9054 19.3455 97.4767 19.3455C97.7624 19.3455 98.048 19.3141 98.3337 19.2511C98.6238 19.1837 98.8868 19.0983 99.1226 18.9949L99.3266 17.6126H100.802V19.9591C100.417 20.2109 99.9365 20.4244 99.3606 20.5997C98.7848 20.7705 98.1455 20.8559 97.4427 20.8559Z" fill="#074064"/>
<path d="M105.194 20.8559C104.469 20.8559 103.845 20.6986 103.324 20.3839C102.802 20.0693 102.403 19.6332 102.127 19.0758C101.85 18.5139 101.712 17.8688 101.712 17.1406V16.999C101.712 16.2752 101.85 15.6347 102.127 15.0773C102.403 14.5153 102.8 14.0771 103.317 13.7624C103.838 13.4432 104.46 13.2836 105.18 13.2836C105.91 13.2836 106.534 13.4432 107.051 13.7624C107.568 14.0771 107.964 14.5131 108.241 15.0705C108.518 15.6279 108.656 16.2708 108.656 16.999V17.1406C108.656 17.8688 108.518 18.5139 108.241 19.0758C107.964 19.6332 107.568 20.0693 107.051 20.3839C106.534 20.6986 105.915 20.8559 105.194 20.8559ZM105.194 19.3455C105.539 19.3455 105.82 19.2534 106.037 19.0691C106.255 18.8848 106.416 18.6285 106.52 18.3004C106.625 17.9677 106.677 17.5811 106.677 17.1406V16.999C106.677 16.5674 106.625 16.1876 106.52 15.8594C106.416 15.5268 106.253 15.2683 106.031 15.084C105.813 14.8952 105.53 14.8008 105.18 14.8008C104.84 14.8008 104.559 14.8952 104.337 15.084C104.115 15.2683 103.952 15.5268 103.847 15.8594C103.748 16.1876 103.698 16.5674 103.698 16.999V17.1406C103.698 17.5811 103.748 17.9677 103.847 18.3004C103.952 18.633 104.115 18.8915 104.337 19.0758C104.559 19.2556 104.845 19.3455 105.194 19.3455Z" fill="#074064"/>
<path d="M109.388 20.7143V19.5343L110.347 19.332V14.8075L109.286 14.6053V13.4185H112.191L112.272 14.3827C112.508 14.0321 112.803 13.7624 113.156 13.5736C113.515 13.3803 113.927 13.2836 114.394 13.2836C114.866 13.2836 115.269 13.387 115.605 13.5938C115.945 13.8006 116.199 14.113 116.366 14.5311C116.593 14.14 116.888 13.8343 117.251 13.614C117.613 13.3938 118.04 13.2836 118.529 13.2836C119.255 13.2836 119.826 13.5286 120.243 14.0186C120.665 14.5086 120.876 15.2548 120.876 16.2573V19.332L121.835 19.5343V20.7143H118.033V19.5343L118.89 19.332V16.2505C118.89 15.7111 118.799 15.338 118.618 15.1312C118.441 14.9199 118.182 14.8143 117.842 14.8143C117.534 14.8143 117.273 14.9019 117.06 15.0773C116.847 15.2481 116.693 15.4751 116.598 15.7583V19.332L117.4 19.5343V20.7143H113.816V19.5343L114.619 19.332V16.2505C114.619 15.7246 114.528 15.3537 114.347 15.1379C114.17 14.9222 113.907 14.8143 113.558 14.8143C113.276 14.8143 113.034 14.8705 112.83 14.9829C112.626 15.0952 112.458 15.2571 112.327 15.4683V19.332L113.184 19.5343V20.7143H109.388Z" fill="#074064"/>
<path d="M122.377 23.5194V22.3326L123.336 22.1304V14.8075L122.275 14.6053V13.4185H125.158L125.254 14.2681C125.471 13.9534 125.734 13.7107 126.043 13.5399C126.351 13.369 126.718 13.2836 127.144 13.2836C127.738 13.2836 128.246 13.4455 128.668 13.7691C129.09 14.0883 129.411 14.5356 129.634 15.111C129.86 15.6864 129.974 16.3584 129.974 17.1271V17.2687C129.974 17.988 129.86 18.6173 129.634 19.1567C129.411 19.6917 129.087 20.1097 128.661 20.4109C128.239 20.7076 127.729 20.8559 127.131 20.8559C126.736 20.8559 126.387 20.7863 126.083 20.6469C125.784 20.5031 125.528 20.294 125.315 20.0198V22.1304L126.274 22.3326V23.5194H122.377ZM126.539 19.3455C127.047 19.3455 127.414 19.159 127.641 18.7859C127.872 18.4128 127.988 17.907 127.988 17.2687V17.1271C127.988 16.6641 127.936 16.2618 127.831 15.9201C127.727 15.574 127.566 15.3043 127.348 15.111C127.135 14.9132 126.861 14.8143 126.526 14.8143C126.253 14.8143 126.013 14.875 125.805 14.9963C125.601 15.1177 125.437 15.2908 125.315 15.5155V18.7117C125.437 18.9185 125.601 19.0758 125.805 19.1837C126.013 19.2916 126.258 19.3455 126.539 19.3455Z" fill="#074064"/>
<path d="M130.529 20.7143V19.5343L131.488 19.332V11.5844L130.427 11.3821V10.1954H133.474V19.332L134.433 19.5343V20.7143H130.529Z" fill="#074064"/>
<path d="M138.39 20.8559C137.687 20.8559 137.073 20.7031 136.547 20.3974C136.021 20.0873 135.613 19.6624 135.322 19.123C135.037 18.5836 134.894 17.9677 134.894 17.2755V17.0057C134.894 16.282 135.03 15.6414 135.302 15.084C135.574 14.5221 135.957 14.0815 136.451 13.7624C136.95 13.4432 137.537 13.2836 138.213 13.2836C138.879 13.2836 139.439 13.414 139.893 13.6747C140.346 13.9355 140.691 14.3108 140.927 14.8008C141.162 15.2908 141.28 15.8842 141.28 16.5809V17.6531H136.955L136.941 17.6935C136.968 18.0127 137.048 18.2981 137.179 18.5499C137.315 18.7971 137.506 18.9927 137.75 19.1365C137.995 19.2759 138.292 19.3455 138.641 19.3455C139.004 19.3455 139.342 19.3006 139.655 19.2107C139.972 19.1163 140.28 18.9792 140.58 18.7994L141.117 20.0131C140.813 20.2558 140.43 20.4581 139.968 20.6199C139.51 20.7773 138.984 20.8559 138.39 20.8559ZM136.968 16.3517H139.423V16.1764C139.423 15.8797 139.383 15.6257 139.301 15.4144C139.224 15.1986 139.097 15.0323 138.92 14.9154C138.748 14.7985 138.523 14.7401 138.247 14.7401C137.984 14.7401 137.762 14.8098 137.58 14.9491C137.399 15.084 137.256 15.2706 137.152 15.5088C137.052 15.7471 136.984 16.0168 136.948 16.318L136.968 16.3517Z" fill="#074064"/>
<path d="M141.89 20.7143V19.5343L142.836 19.413L144.944 17.0597L142.951 14.7199L142.06 14.6053V13.4185H145.706V14.5513L145.134 14.639L146.202 16.028L147.27 14.639L146.638 14.5513V13.4185H150.154V14.6053L149.331 14.7199L147.447 16.9788L149.548 19.413L150.453 19.5343V20.7143H146.678V19.5883L147.318 19.5006L146.182 18.1048L145.073 19.5074L145.699 19.5883V20.7143H141.89Z" fill="#074064"/>
<path d="M92.7295 34.5239V33.3439L93.7837 33.1416V26.0952L92.7295 25.8929V24.7062H96.8238V25.8929L95.7696 26.0952V33.1416L96.8238 33.3439V34.5239H92.7295Z" fill="#074064"/>
<path d="M97.4747 34.5239V33.3439L98.4269 33.1416V28.6171L97.3727 28.4148V27.228H100.277L100.365 28.2732C100.61 27.9001 100.912 27.6101 101.27 27.4033C101.633 27.1966 102.045 27.0932 102.508 27.0932C103.238 27.0932 103.809 27.3247 104.222 27.7877C104.634 28.2507 104.84 28.9767 104.84 29.9656V33.1416L105.793 33.3439V34.5239H101.998V33.3439L102.848 33.1416V29.9724C102.848 29.4824 102.75 29.1363 102.555 28.934C102.36 28.7272 102.07 28.6238 101.685 28.6238C101.399 28.6238 101.15 28.6845 100.937 28.8059C100.728 28.9227 100.553 29.0913 100.413 29.3116V33.1416L101.215 33.3439V34.5239H97.4747Z" fill="#074064"/>
<path d="M109.008 34.6655C108.323 34.6655 107.795 34.4789 107.423 34.1058C107.056 33.7327 106.872 33.1416 106.872 32.3324V28.6103H105.859V27.228H106.872V25.4411H108.851V27.228H110.205V28.6103H108.851V32.3257C108.851 32.6089 108.91 32.8112 109.028 32.9325C109.15 33.0539 109.316 33.1146 109.524 33.1146C109.633 33.1146 109.751 33.1079 109.878 33.0944C110.005 33.0764 110.114 33.0584 110.205 33.0404L110.375 34.4632C110.171 34.5216 109.948 34.5688 109.708 34.6048C109.472 34.6452 109.239 34.6655 109.008 34.6655Z" fill="#074064"/>
<path d="M114.385 34.6655C113.683 34.6655 113.068 34.5126 112.542 34.207C112.016 33.8968 111.608 33.472 111.318 32.9325C111.032 32.3931 110.89 31.7772 110.89 31.085V30.8153C110.89 30.0915 111.026 29.4509 111.298 28.8935C111.57 28.3316 111.953 27.8911 112.447 27.5719C112.946 27.2527 113.533 27.0932 114.209 27.0932C114.875 27.0932 115.435 27.2235 115.888 27.4842C116.342 27.745 116.686 28.1203 116.922 28.6103C117.158 29.1003 117.276 29.6937 117.276 30.3905V31.4626H112.95L112.937 31.503C112.964 31.8222 113.043 32.1077 113.175 32.3594C113.311 32.6066 113.501 32.8022 113.746 32.946C113.991 33.0854 114.288 33.1551 114.637 33.1551C115 33.1551 115.338 33.1101 115.65 33.0202C115.968 32.9258 116.276 32.7887 116.575 32.6089L117.113 33.8226C116.809 34.0654 116.426 34.2676 115.963 34.4295C115.505 34.5868 114.979 34.6655 114.385 34.6655ZM112.964 30.1612H115.419V29.9859C115.419 29.6892 115.378 29.4352 115.297 29.2239C115.22 29.0082 115.093 28.8418 114.916 28.7249C114.744 28.6081 114.519 28.5496 114.243 28.5496C113.98 28.5496 113.757 28.6193 113.576 28.7587C113.395 28.8935 113.252 29.0801 113.148 29.3183C113.048 29.5566 112.98 29.8263 112.944 30.1275L112.964 30.1612Z" fill="#074064"/>
<path d="M118.26 34.5239V33.3439L119.212 33.1416V28.6171L118.158 28.4148V27.228H121.062L121.137 28.1316L121.151 28.2934C121.332 27.8978 121.556 27.5989 121.824 27.3966C122.091 27.1943 122.411 27.0932 122.783 27.0932C122.901 27.0932 123.03 27.1044 123.171 27.1269C123.311 27.1449 123.436 27.1696 123.545 27.201L123.334 29.0149L122.348 28.961C122.067 28.9475 121.838 28.9947 121.661 29.1026C121.488 29.2104 121.334 29.3655 121.198 29.5678V33.1416L122.15 33.3439V34.5239H118.26Z" fill="#074064"/>
<path d="M124.298 34.5239V33.3439L125.257 33.1416V28.6103H124.162V27.228H125.257V26.4189C125.257 25.6007 125.492 24.9714 125.964 24.5308C126.44 24.0858 127.104 23.8633 127.957 23.8633C128.17 23.8633 128.394 23.8813 128.63 23.9172C128.866 23.9487 129.067 23.9869 129.235 24.0319L129.065 25.4951C128.956 25.4636 128.832 25.4411 128.691 25.4277C128.551 25.4097 128.408 25.4007 128.263 25.4007C127.918 25.4007 127.662 25.4883 127.494 25.6637C127.326 25.839 127.243 26.0907 127.243 26.4189V27.228H128.909V28.6103H127.243V33.1416L128.542 33.3439V34.5239H124.298Z" fill="#074064"/>
<path d="M132.008 34.6655C131.278 34.6655 130.698 34.4722 130.267 34.0856C129.836 33.6945 129.621 33.164 129.621 32.4942C129.621 31.8065 129.902 31.2491 130.464 30.822C131.027 30.3905 131.849 30.1747 132.933 30.1747H133.906V29.6352C133.906 29.2846 133.801 29.0014 133.593 28.7856C133.389 28.5654 133.081 28.4552 132.668 28.4552C132.455 28.4552 132.262 28.4822 132.09 28.5361C131.922 28.5856 131.77 28.6575 131.634 28.7519L131.478 29.7162H130.049L130.022 27.8214C130.408 27.6056 130.825 27.4303 131.274 27.2954C131.723 27.1606 132.224 27.0932 132.777 27.0932C133.738 27.0932 134.497 27.3157 135.055 27.7607C135.613 28.2012 135.892 28.8328 135.892 29.6555V32.6628C135.892 32.7617 135.892 32.8606 135.892 32.9595C135.896 33.0539 135.905 33.1461 135.919 33.236L136.687 33.3439V34.5239H134.225C134.176 34.398 134.126 34.2631 134.076 34.1193C134.026 33.9754 133.99 33.8316 133.967 33.6877C133.731 33.9844 133.452 34.2227 133.13 34.4025C132.813 34.5778 132.439 34.6655 132.008 34.6655ZM132.539 33.209C132.815 33.209 133.078 33.1483 133.328 33.0269C133.577 32.9011 133.77 32.737 133.906 32.5347V31.3817H132.926C132.491 31.3817 132.16 31.4806 131.933 31.6784C131.711 31.8761 131.6 32.1144 131.6 32.3931C131.6 32.6538 131.682 32.8561 131.845 33C132.013 33.1393 132.244 33.209 132.539 33.209Z" fill="#074064"/>
<path d="M140.773 34.6655C140.066 34.6655 139.454 34.5081 138.937 34.1935C138.424 33.8788 138.03 33.445 137.753 32.8921C137.477 32.3347 137.338 31.6986 137.338 30.9838V30.7815C137.338 30.0623 137.479 29.4262 137.76 28.8733C138.041 28.3204 138.438 27.8866 138.95 27.5719C139.463 27.2527 140.066 27.0932 140.759 27.0932C141.421 27.0932 141.99 27.1966 142.466 27.4033C142.947 27.6056 143.337 27.8416 143.636 28.1113L143.623 30.2017H142.126L141.861 28.9003C141.752 28.7924 141.614 28.7047 141.446 28.6373C141.279 28.5699 141.108 28.5361 140.936 28.5361C140.573 28.5361 140.272 28.6261 140.032 28.8059C139.796 28.9857 139.619 29.2419 139.501 29.5746C139.383 29.9072 139.324 30.3095 139.324 30.7815V30.9838C139.324 31.4828 139.39 31.8941 139.522 32.2178C139.653 32.537 139.828 32.773 140.045 32.9258C140.267 33.0786 140.515 33.1551 140.787 33.1551C141.136 33.1551 141.415 33.0651 141.623 32.8853C141.836 32.701 141.984 32.4426 142.065 32.1099H143.759L143.779 32.1504C143.702 32.6673 143.548 33.1146 143.317 33.4922C143.09 33.8698 142.768 34.1598 142.351 34.362C141.938 34.5643 141.412 34.6655 140.773 34.6655Z" fill="#074064"/>
<path d="M148.11 34.6655C147.407 34.6655 146.792 34.5126 146.266 34.207C145.74 33.8968 145.332 33.472 145.042 32.9325C144.757 32.3931 144.614 31.7772 144.614 31.085V30.8153C144.614 30.0915 144.75 29.4509 145.022 28.8935C145.294 28.3316 145.677 27.8911 146.171 27.5719C146.67 27.2527 147.257 27.0932 147.933 27.0932C148.599 27.0932 149.159 27.2235 149.613 27.4842C150.066 27.745 150.411 28.1203 150.646 28.6103C150.882 29.1003 151 29.6937 151 30.3905V31.4626H146.674L146.661 31.503C146.688 31.8222 146.767 32.1077 146.899 32.3594C147.035 32.6066 147.225 32.8022 147.47 32.946C147.715 33.0854 148.012 33.1551 148.361 33.1551C148.724 33.1551 149.062 33.1101 149.375 33.0202C149.692 32.9258 150 32.7887 150.299 32.6089L150.837 33.8226C150.533 34.0654 150.15 34.2676 149.687 34.4295C149.229 34.5868 148.703 34.6655 148.11 34.6655ZM146.688 30.1612H149.143V29.9859C149.143 29.6892 149.102 29.4352 149.021 29.2239C148.944 29.0082 148.817 28.8418 148.64 28.7249C148.468 28.6081 148.243 28.5496 147.967 28.5496C147.704 28.5496 147.482 28.6193 147.3 28.7587C147.119 28.8935 146.976 29.0801 146.872 29.3183C146.772 29.5566 146.704 29.8263 146.668 30.1275L146.688 30.1612Z" fill="#074064"/>
<path d="M97.4427 48.475C96.4815 48.475 95.6449 48.2772 94.9331 47.8816C94.2212 47.4815 93.6703 46.9174 93.2804 46.1891C92.895 45.4564 92.7023 44.5911 92.7023 43.5931V43.2627C92.7023 42.3097 92.8882 41.4668 93.26 40.7341C93.6363 39.9969 94.1713 39.4192 94.865 39.0012C95.5588 38.5831 96.384 38.3741 97.3407 38.3741C98.0117 38.3741 98.6397 38.4685 99.2246 38.6573C99.814 38.8461 100.34 39.1338 100.802 39.5204V41.8939H99.3266L99.1226 40.4037C98.973 40.2958 98.8097 40.2037 98.6329 40.1272C98.4561 40.0508 98.2634 39.9924 98.0548 39.9519C97.8508 39.9115 97.6286 39.8912 97.3883 39.8912C96.8261 39.8912 96.3432 40.0283 95.9396 40.3026C95.5361 40.5768 95.2255 40.9656 95.0079 41.4691C94.7948 41.9681 94.6882 42.5614 94.6882 43.2492V43.5931C94.6882 44.2809 94.8016 44.8765 95.0283 45.38C95.255 45.8835 95.5769 46.2746 95.994 46.5533C96.4112 46.8275 96.9054 46.9646 97.4767 46.9646C97.7624 46.9646 98.048 46.9331 98.3337 46.8702C98.6238 46.8027 98.8868 46.7173 99.1226 46.6139L99.3266 45.2316H100.802V47.5782C100.417 47.8299 99.9365 48.0434 99.3606 48.2188C98.7848 48.3896 98.1455 48.475 97.4427 48.475Z" fill="#074064"/>
<path d="M104.147 48.475C103.417 48.475 102.836 48.2817 102.406 47.8951C101.975 47.504 101.759 46.9736 101.759 46.3038C101.759 45.616 102.041 45.0586 102.603 44.6315C103.165 44.2 103.988 43.9842 105.072 43.9842H106.044V43.4448C106.044 43.0941 105.94 42.8109 105.731 42.5952C105.527 42.3749 105.219 42.2648 104.806 42.2648C104.593 42.2648 104.401 42.2917 104.228 42.3457C104.061 42.3951 103.909 42.467 103.773 42.5614L103.616 43.5257H102.188L102.161 41.6309C102.546 41.4151 102.963 41.2398 103.412 41.105C103.861 40.9701 104.362 40.9027 104.915 40.9027C105.876 40.9027 106.636 41.1252 107.194 41.5702C107.751 42.0108 108.03 42.6424 108.03 43.465V46.4723C108.03 46.5712 108.03 46.6701 108.03 46.769C108.035 46.8634 108.044 46.9556 108.057 47.0455L108.826 47.1534V48.3334H106.364C106.314 48.2075 106.264 48.0727 106.214 47.9288C106.164 47.785 106.128 47.6411 106.105 47.4973C105.87 47.794 105.591 48.0322 105.269 48.212C104.952 48.3873 104.577 48.475 104.147 48.475ZM104.677 47.0185C104.954 47.0185 105.217 46.9578 105.466 46.8365C105.716 46.7106 105.908 46.5465 106.044 46.3442V45.1912H105.065C104.63 45.1912 104.299 45.2901 104.072 45.4879C103.85 45.6857 103.739 45.9239 103.739 46.2026C103.739 46.4634 103.82 46.6656 103.983 46.8095C104.151 46.9488 104.382 47.0185 104.677 47.0185Z" fill="#074064"/>
<path d="M109.375 48.3334V47.1534L110.327 46.9511V42.4266L109.273 42.2243V41.0375H112.177L112.265 42.0827C112.51 41.7096 112.812 41.4196 113.17 41.2129C113.533 41.0061 113.945 40.9027 114.408 40.9027C115.138 40.9027 115.709 41.1342 116.122 41.5972C116.534 42.0602 116.741 42.7862 116.741 43.7752V46.9511L117.693 47.1534V48.3334H113.898V47.1534L114.748 46.9511V43.7819C114.748 43.2919 114.65 42.9458 114.455 42.7435C114.26 42.5367 113.97 42.4333 113.585 42.4333C113.299 42.4333 113.05 42.494 112.837 42.6154C112.628 42.7323 112.454 42.9008 112.313 43.1211V46.9511L113.116 47.1534V48.3334H109.375Z" fill="#074064"/>
<path d="M120.459 48.3334L118.235 42.3457L117.439 42.2243V41.0375H121.01V42.2176L120.234 42.3524L121.343 45.6632L121.513 46.2296H121.554L121.744 45.6632L122.962 42.3592L122.057 42.2176V41.0375H125.621V42.2243L124.805 42.3592L122.479 48.3334H120.459Z" fill="#074064"/>
<path d="M128.475 48.475C127.746 48.475 127.165 48.2817 126.734 47.8951C126.304 47.504 126.088 46.9736 126.088 46.3038C126.088 45.616 126.369 45.0586 126.932 44.6315C127.494 44.2 128.317 43.9842 129.4 43.9842H130.373V43.4448C130.373 43.0941 130.269 42.8109 130.06 42.5952C129.856 42.3749 129.548 42.2648 129.135 42.2648C128.922 42.2648 128.729 42.2917 128.557 42.3457C128.389 42.3951 128.237 42.467 128.101 42.5614L127.945 43.5257H126.517L126.49 41.6309C126.875 41.4151 127.292 41.2398 127.741 41.105C128.19 40.9701 128.691 40.9027 129.244 40.9027C130.205 40.9027 130.965 41.1252 131.522 41.5702C132.08 42.0108 132.359 42.6424 132.359 43.465V46.4723C132.359 46.5712 132.359 46.6701 132.359 46.769C132.364 46.8634 132.373 46.9556 132.386 47.0455L133.155 47.1534V48.3334H130.693C130.643 48.2075 130.593 48.0727 130.543 47.9288C130.493 47.785 130.457 47.6411 130.434 47.4973C130.198 47.794 129.92 48.0322 129.598 48.212C129.28 48.3873 128.906 48.475 128.475 48.475ZM129.006 47.0185C129.283 47.0185 129.546 46.9578 129.795 46.8365C130.044 46.7106 130.237 46.5465 130.373 46.3442V45.1912H129.394C128.958 45.1912 128.627 45.2901 128.401 45.4879C128.179 45.6857 128.067 45.9239 128.067 46.2026C128.067 46.4634 128.149 46.6656 128.312 46.8095C128.48 46.9488 128.711 47.0185 129.006 47.0185Z" fill="#074064"/>
<path d="M136.934 48.475C136.386 48.475 135.873 48.4233 135.397 48.3199C134.926 48.2165 134.472 48.0682 134.037 47.8749L134.016 45.8115H135.397L135.662 46.8634C135.817 46.9399 135.984 47.0005 136.166 47.0455C136.352 47.0904 136.562 47.1129 136.798 47.1129C137.243 47.1129 137.555 47.041 137.737 46.8971C137.918 46.7533 138.009 46.5735 138.009 46.3577C138.009 46.1554 137.911 45.9779 137.716 45.825C137.526 45.6677 137.143 45.5306 136.567 45.4137C135.696 45.2339 135.055 44.9552 134.642 44.5776C134.23 44.2 134.023 43.7167 134.023 43.1279C134.023 42.7233 134.125 42.3547 134.329 42.022C134.538 41.6894 134.853 41.4219 135.275 41.2196C135.701 41.0173 136.245 40.9162 136.907 40.9162C137.46 40.9162 137.966 40.9701 138.424 41.078C138.886 41.1814 139.274 41.3185 139.587 41.4893L139.607 43.4852H138.233L138.022 42.5277C137.9 42.4378 137.755 42.3704 137.587 42.3254C137.424 42.2805 137.238 42.258 137.029 42.258C136.68 42.258 136.413 42.3277 136.227 42.467C136.041 42.6064 135.948 42.7862 135.948 43.0065C135.948 43.1323 135.98 43.2492 136.043 43.3571C136.111 43.465 136.243 43.5661 136.438 43.6605C136.633 43.7549 136.916 43.8448 137.288 43.9303C138.199 44.137 138.863 44.4135 139.281 44.7596C139.698 45.1013 139.906 45.5823 139.906 46.2026C139.906 46.8814 139.657 47.4298 139.158 47.8479C138.664 48.266 137.923 48.475 136.934 48.475Z" fill="#074064"/>
<path d="M42.6226 29.0001H81.9019V41.4286H42.6226V29.0001Z" fill="#074064"/>
<path d="M0 29.0001H38.4436V41.4286H0V29.0001Z" fill="#074064"/>
<path d="M43.4581 6.10352e-05H60.1727V24.8572H43.4581V6.10352e-05Z" fill="#074064"/>
<path d="M43.4581 45.5715H60.1727V58.0001H43.4581V45.5715Z" fill="#074064"/>
<path d="M0 45.5715H17.5503V58.0001H0V45.5715Z" fill="#074064"/>
<path d="M64.3512 6.10352e-05H81.9016V24.8572H64.3512V6.10352e-05Z" fill="#074064"/>
<path d="M64.3512 45.5715H81.9016V58.0001H64.3512V45.5715Z" fill="#074064"/>
<path d="M21.7287 45.5715H38.4433V58.0001H21.7287V45.5715Z" fill="#074064"/>
<path d="M0 6.10352e-05H17.5503V24.8572H0V6.10352e-05Z" fill="#074064"/>
<path d="M21.7287 6.10352e-05H38.4433V24.8572H21.7287V6.10352e-05Z" fill="#074064"/>
</svg>
