<svg width="306" height="98" viewBox="0 0 306 98" fill="none" xmlns="http://www.w3.org/2000/svg">
<path d="M70.2553 49.0684H135V69.7315H70.2553V49.0684Z" fill="#EEF6FF"/>
<path d="M0 49.0684H63.3671V69.7315H0V49.0684Z" fill="#EEF6FF"/>
<path d="M71.6326 0.854248H99.1835V42.1806H71.6326V0.854248Z" fill="#EEF6FF"/>
<path d="M71.6326 76.6193H99.1835V97.2825H71.6326V76.6193Z" fill="#EEF6FF"/>
<path d="M0 76.6193H28.9285V97.2825H0V76.6193Z" fill="#EEF6FF"/>
<path d="M106.071 0.854248H134.999V42.1806H106.071V0.854248Z" fill="#EEF6FF"/>
<path d="M106.071 76.6193H134.999V97.2825H106.071V76.6193Z" fill="#EEF6FF"/>
<path d="M35.8157 76.6193H63.3666V97.2825H35.8157V76.6193Z" fill="#EEF6FF"/>
<path d="M0 0.854248H28.9285V42.1806H0V0.854248Z" fill="#EEF6FF"/>
<path d="M35.8157 0.854248H63.3666V42.1806H35.8157V0.854248Z" fill="#EEF6FF"/>
<path d="M157.565 44.0388C156.312 44.0388 155.23 43.7751 154.322 43.2478C153.42 42.7205 152.726 41.9792 152.239 41.0242C151.753 40.0632 151.51 38.9382 151.51 37.6492V37.2712C151.51 36.0291 151.747 34.9275 152.222 33.9666C152.696 33.0056 153.376 32.2498 154.261 31.699C155.146 31.1482 156.2 30.8728 157.425 30.8728C158.286 30.8728 159.089 30.9988 159.833 31.2507C160.577 31.4968 161.233 31.8601 161.802 32.3406V35.364H160L159.754 33.4041C159.561 33.2634 159.347 33.1433 159.112 33.0437C158.884 32.9441 158.632 32.8679 158.356 32.8152C158.087 32.7625 157.794 32.7361 157.478 32.7361C156.728 32.7361 156.086 32.9236 155.553 33.2986C155.02 33.6677 154.609 34.1892 154.322 34.863C154.041 35.5369 153.9 36.3337 153.9 37.2537V37.6492C153.9 38.5808 154.05 39.3865 154.349 40.0662C154.647 40.7458 155.072 41.2703 155.623 41.6394C156.18 42.0027 156.842 42.1843 157.609 42.1843C157.99 42.1843 158.368 42.1433 158.743 42.0613C159.118 41.9734 159.452 41.8591 159.745 41.7185L160 39.9167H161.784V42.9138C161.292 43.2361 160.683 43.5056 159.956 43.7224C159.229 43.9333 158.433 44.0388 157.565 44.0388Z" fill="#EEF6FF"/>
<path d="M167.503 44.0388C166.572 44.0388 165.775 43.8337 165.113 43.4236C164.451 43.0134 163.941 42.4451 163.583 41.7185C163.226 40.9861 163.047 40.1453 163.047 39.196V39.0115C163.047 38.0681 163.226 37.2332 163.583 36.5066C163.941 35.78 164.451 35.2087 165.113 34.7927C165.775 34.3767 166.566 34.1687 167.486 34.1687C168.412 34.1687 169.205 34.3767 169.868 34.7927C170.53 35.2029 171.037 35.7712 171.388 36.4978C171.746 37.2244 171.924 38.0623 171.924 39.0115V39.196C171.924 40.1453 171.746 40.9861 171.388 41.7185C171.037 42.4451 170.53 43.0134 169.868 43.4236C169.205 43.8337 168.417 44.0388 167.503 44.0388ZM167.503 42.2019C167.966 42.2019 168.347 42.0759 168.646 41.824C168.951 41.572 169.176 41.2205 169.323 40.7693C169.469 40.3123 169.542 39.7878 169.542 39.196V39.0115C169.542 38.4255 169.469 37.907 169.323 37.4558C169.176 37.0046 168.951 36.6531 168.646 36.4011C168.341 36.1433 167.954 36.0144 167.486 36.0144C167.017 36.0144 166.63 36.1433 166.326 36.4011C166.027 36.6531 165.804 37.0046 165.658 37.4558C165.511 37.907 165.438 38.4255 165.438 39.0115V39.196C165.438 39.7937 165.511 40.3181 165.658 40.7693C165.804 41.2205 166.03 41.572 166.334 41.824C166.639 42.0759 167.029 42.2019 167.503 42.2019Z" fill="#EEF6FF"/>
<path d="M172.915 43.8542V42.4128L174.198 42.1492V36.0583L172.818 35.7947V34.3445H176.404L176.51 35.5925C176.82 35.1414 177.207 34.7927 177.67 34.5466C178.133 34.2947 178.669 34.1687 179.278 34.1687C179.893 34.1687 180.421 34.3064 180.86 34.5818C181.3 34.8572 181.631 35.2703 181.853 35.821C182.146 35.3054 182.53 34.9011 183.005 34.6082C183.479 34.3152 184.033 34.1687 184.666 34.1687C185.615 34.1687 186.362 34.491 186.907 35.1355C187.452 35.78 187.724 36.7585 187.724 38.071V42.1492L189.008 42.4128V43.8542H184.156V42.4128L185.334 42.1492V38.0623C185.334 37.3064 185.208 36.782 184.956 36.489C184.71 36.1902 184.344 36.0408 183.857 36.0408C183.418 36.0408 183.052 36.1755 182.759 36.4451C182.466 36.7146 182.263 37.0603 182.152 37.4822V42.1492L183.268 42.4128V43.8542H178.654V42.4128L179.77 42.1492V38.0623C179.77 37.3357 179.644 36.8171 179.392 36.5066C179.14 36.196 178.771 36.0408 178.285 36.0408C177.887 36.0408 177.547 36.1228 177.265 36.2869C176.984 36.4451 176.756 36.6736 176.58 36.9724V42.1492L177.758 42.4128V43.8542H172.915Z" fill="#EEF6FF"/>
<path d="M189.743 47.5105V46.0603L191.009 45.7966V36.0583L189.62 35.7947V34.3445H193.18L193.312 35.4607C193.599 35.0447 193.947 34.7253 194.358 34.5027C194.768 34.28 195.254 34.1687 195.817 34.1687C196.584 34.1687 197.24 34.3796 197.785 34.8015C198.336 35.2175 198.758 35.8035 199.051 36.5593C199.344 37.3152 199.49 38.1941 199.49 39.196V39.3806C199.49 40.3123 199.344 41.1296 199.051 41.8328C198.758 42.53 198.336 43.072 197.785 43.4587C197.24 43.8455 196.581 44.0388 195.808 44.0388C195.28 44.0388 194.818 43.9451 194.419 43.7576C194.021 43.5701 193.678 43.2947 193.391 42.9314V45.7966L194.692 46.0603V47.5105H189.743ZM195.087 42.2019C195.779 42.2019 196.285 41.947 196.608 41.4373C196.93 40.9275 197.091 40.2419 197.091 39.3806V39.196C197.091 38.5691 197.018 38.0212 196.871 37.5525C196.731 37.0779 196.511 36.7087 196.212 36.4451C195.913 36.1755 195.532 36.0408 195.07 36.0408C194.689 36.0408 194.355 36.1287 194.068 36.3044C193.786 36.4744 193.561 36.7146 193.391 37.0251V41.2878C193.561 41.5808 193.786 41.8064 194.068 41.9646C194.355 42.1228 194.695 42.2019 195.087 42.2019Z" fill="#EEF6FF"/>
<path d="M200.279 43.8542V42.4128L201.562 42.1492V31.8572L200.182 31.5935V30.1433H203.953V42.1492L205.236 42.4128V43.8542H200.279Z" fill="#EEF6FF"/>
<path d="M210.384 44.0388C209.481 44.0388 208.693 43.8396 208.02 43.4412C207.352 43.0369 206.833 42.4832 206.464 41.78C206.095 41.071 205.91 40.2625 205.91 39.3542V38.9939C205.91 38.0623 206.086 37.2332 206.438 36.5066C206.795 35.78 207.293 35.2087 207.932 34.7927C208.57 34.3767 209.309 34.1687 210.147 34.1687C211.008 34.1687 211.731 34.3416 212.317 34.6873C212.903 35.0271 213.346 35.5164 213.645 36.155C213.943 36.7937 214.093 37.5613 214.093 38.4578V39.7849H208.389L208.371 39.8376C208.395 40.2947 208.497 40.7019 208.679 41.0593C208.86 41.4109 209.115 41.6892 209.443 41.8943C209.772 42.0994 210.17 42.2019 210.639 42.2019C211.137 42.2019 211.591 42.1375 212.001 42.0085C212.417 41.8796 212.813 41.6892 213.188 41.4373L213.873 42.9226C213.492 43.239 213.009 43.5056 212.423 43.7224C211.837 43.9333 211.157 44.0388 210.384 44.0388ZM208.415 38.1589H211.843V37.9304C211.843 37.532 211.784 37.1863 211.667 36.8933C211.55 36.5945 211.368 36.363 211.122 36.199C210.882 36.0349 210.568 35.9529 210.182 35.9529C209.83 35.9529 209.528 36.0496 209.276 36.2429C209.024 36.4304 208.825 36.6882 208.679 37.0164C208.532 37.3386 208.436 37.7048 208.389 38.115L208.415 38.1589Z" fill="#EEF6FF"/>
<path d="M214.925 43.8542V42.4128L216.103 42.2371L218.854 39.0818L216.235 35.9617L215.136 35.7947V34.3445H219.636V35.7419L218.854 35.8562L220.357 37.7986L221.842 35.8562L220.981 35.7419V34.3445H225.34V35.7947L224.303 35.9617L221.833 38.9939L224.602 42.2371L225.727 42.4128V43.8542H221.034V42.4656L221.921 42.3513L220.331 40.3826L218.766 42.3601L219.627 42.4656V43.8542H214.925Z" fill="#EEF6FF"/>
<path d="M230.776 43.8542V42.4128L232.156 42.1492V32.7712L230.776 32.5076V31.0574H235.926V32.5076L234.546 32.7712V42.1492L235.926 42.4128V43.8542H230.776Z" fill="#EEF6FF"/>
<path d="M236.846 43.8542V42.4128L238.121 42.1492V36.0583L236.75 35.7947V34.3445H240.336L240.45 35.7156C240.766 35.2292 241.159 34.8513 241.628 34.5818C242.102 34.3064 242.638 34.1687 243.236 34.1687C244.191 34.1687 244.938 34.4705 245.477 35.074C246.022 35.6716 246.295 36.6121 246.295 37.8953V42.1492L247.569 42.4128V43.8542H242.726V42.4128L243.895 42.1492V37.9128C243.895 37.2332 243.76 36.7527 243.491 36.4714C243.221 36.1843 242.82 36.0408 242.287 36.0408C241.888 36.0408 241.54 36.1287 241.241 36.3044C240.948 36.4744 240.705 36.7175 240.511 37.0339V42.1492L241.636 42.4128V43.8542H236.846Z" fill="#EEF6FF"/>
<path d="M251.724 44.03C250.88 44.03 250.224 43.7957 249.755 43.3269C249.292 42.8523 249.061 42.1023 249.061 41.0769V36.0408H247.716V34.3445H249.061V32.0242H251.442V34.3445H253.262V36.0408H251.442V41.0769C251.442 41.4636 251.524 41.7419 251.689 41.9119C251.853 42.0818 252.072 42.1667 252.348 42.1667C252.5 42.1667 252.667 42.155 252.849 42.1316C253.03 42.1082 253.183 42.0847 253.306 42.0613L253.534 43.7576C253.271 43.8337 252.978 43.8982 252.655 43.9509C252.339 44.0037 252.028 44.03 251.724 44.03Z" fill="#EEF6FF"/>
<path d="M258.708 44.0388C257.806 44.0388 257.018 43.8396 256.344 43.4412C255.676 43.0369 255.158 42.4832 254.789 41.78C254.419 41.071 254.235 40.2625 254.235 39.3542V38.9939C254.235 38.0623 254.411 37.2332 254.762 36.5066C255.12 35.78 255.618 35.2087 256.256 34.7927C256.895 34.3767 257.633 34.1687 258.471 34.1687C259.333 34.1687 260.056 34.3416 260.642 34.6873C261.228 35.0271 261.67 35.5164 261.969 36.155C262.268 36.7937 262.417 37.5613 262.417 38.4578V39.7849H256.713L256.696 39.8376C256.719 40.2947 256.822 40.7019 257.003 41.0593C257.185 41.4109 257.44 41.6892 257.768 41.8943C258.096 42.0994 258.495 42.2019 258.963 42.2019C259.461 42.2019 259.916 42.1375 260.326 42.0085C260.742 41.8796 261.137 41.6892 261.512 41.4373L262.198 42.9226C261.817 43.239 261.333 43.5056 260.748 43.7224C260.162 43.9333 259.482 44.0388 258.708 44.0388ZM256.74 38.1589H260.167V37.9304C260.167 37.532 260.109 37.1863 259.992 36.8933C259.875 36.5945 259.693 36.363 259.447 36.199C259.207 36.0349 258.893 35.9529 258.506 35.9529C258.155 35.9529 257.853 36.0496 257.601 36.2429C257.349 36.4304 257.15 36.6882 257.003 37.0164C256.857 37.3386 256.76 37.7048 256.713 38.115L256.74 38.1589Z" fill="#EEF6FF"/>
<path d="M263.681 43.8542V42.4128L264.955 42.1492V36.0583L263.584 35.7947V34.3445H267.17L267.275 35.531L267.293 35.7332C267.533 35.2234 267.832 34.8367 268.189 34.573C268.547 34.3035 268.969 34.1687 269.455 34.1687C269.613 34.1687 269.783 34.1833 269.965 34.2126C270.152 34.2361 270.31 34.2683 270.439 34.3093L270.167 36.5154L268.91 36.4451C268.529 36.4275 268.216 36.4978 267.97 36.656C267.729 36.8142 267.521 37.0398 267.346 37.3328V42.1492L268.62 42.4128V43.8542H263.681Z" fill="#EEF6FF"/>
<path d="M271.439 43.8542V42.4128L272.722 42.1492V36.0408H271.289V34.3445H272.722V33.2634C272.722 32.2029 273.018 31.3884 273.61 30.8201C274.207 30.2458 275.042 29.9587 276.115 29.9587C276.367 29.9587 276.636 29.9792 276.923 30.0203C277.216 30.0613 277.474 30.1111 277.697 30.1697L277.477 31.9539C277.348 31.9187 277.193 31.8923 277.011 31.8748C276.829 31.8513 276.648 31.8396 276.466 31.8396C276.009 31.8396 275.669 31.9626 275.447 32.2087C275.224 32.449 275.113 32.8005 275.113 33.2634V34.3445H277.248V36.0408H275.113V42.1492L276.783 42.4128V43.8542H271.439Z" fill="#EEF6FF"/>
<path d="M281.28 44.0388C280.325 44.0388 279.572 43.7898 279.021 43.2917C278.476 42.7878 278.204 42.0994 278.204 41.2263C278.204 40.3298 278.567 39.6033 279.294 39.0466C280.026 38.4841 281.081 38.2029 282.458 38.2029H283.811V37.4558C283.811 36.9753 283.668 36.5886 283.381 36.2957C283.099 36.0027 282.683 35.8562 282.133 35.8562C281.834 35.8562 281.564 35.8943 281.324 35.9705C281.09 36.0408 280.879 36.1433 280.691 36.2781L280.489 37.5525H278.749L278.731 35.1443C279.212 34.8513 279.739 34.6169 280.313 34.4412C280.893 34.2595 281.538 34.1687 282.247 34.1687C283.471 34.1687 284.435 34.4558 285.138 35.03C285.847 35.5984 286.202 36.4158 286.202 37.4822V41.5339C286.202 41.6628 286.202 41.7888 286.202 41.9119C286.208 42.0349 286.219 42.155 286.237 42.2722L287.213 42.4128V43.8542H284.18C284.116 43.6726 284.054 43.488 283.996 43.3005C283.943 43.1072 283.905 42.9138 283.882 42.7205C283.571 43.113 283.199 43.4324 282.765 43.6785C282.338 43.9187 281.842 44.0388 281.28 44.0388ZM281.869 42.2371C282.273 42.2371 282.651 42.1433 283.003 41.9558C283.36 41.7683 283.63 41.531 283.811 41.2439V39.697H282.449C281.834 39.697 281.368 39.8406 281.051 40.1277C280.741 40.4089 280.586 40.7429 280.586 41.1296C280.586 41.4812 280.697 41.7537 280.92 41.947C281.142 42.1404 281.459 42.2371 281.869 42.2371Z" fill="#EEF6FF"/>
<path d="M292.554 44.0388C291.651 44.0388 290.869 43.8367 290.207 43.4324C289.551 43.0222 289.044 42.4568 288.687 41.7361C288.329 41.0154 288.151 40.1863 288.151 39.2488V38.9587C288.151 38.033 288.329 37.2097 288.687 36.489C289.05 35.7683 289.56 35.2029 290.216 34.7927C290.872 34.3767 291.646 34.1687 292.536 34.1687C293.374 34.1687 294.098 34.3005 294.707 34.5642C295.322 34.8279 295.82 35.1443 296.201 35.5134V38.1501H294.391L294.057 36.4539C293.904 36.3015 293.711 36.1785 293.477 36.0847C293.242 35.991 292.993 35.9441 292.73 35.9441C292.255 35.9441 291.854 36.0701 291.526 36.322C291.203 36.5681 290.957 36.9167 290.787 37.3679C290.623 37.8132 290.541 38.3435 290.541 38.9587V39.2488C290.541 39.9109 290.629 40.4617 290.805 40.9011C290.981 41.3347 291.221 41.6599 291.526 41.8767C291.836 42.0935 292.182 42.2019 292.563 42.2019C293.043 42.2019 293.433 42.0759 293.732 41.824C294.03 41.5662 294.23 41.2058 294.329 40.7429H296.377L296.403 40.7957C296.321 41.4402 296.131 42.0085 295.832 42.5007C295.539 42.9871 295.123 43.365 294.584 43.6345C294.051 43.9041 293.374 44.0388 292.554 44.0388Z" fill="#EEF6FF"/>
<path d="M302.061 44.0388C301.159 44.0388 300.371 43.8396 299.697 43.4412C299.029 43.0369 298.51 42.4832 298.141 41.78C297.772 41.071 297.587 40.2625 297.587 39.3542V38.9939C297.587 38.0623 297.763 37.2332 298.115 36.5066C298.472 35.78 298.97 35.2087 299.609 34.7927C300.248 34.3767 300.986 34.1687 301.824 34.1687C302.685 34.1687 303.409 34.3416 303.995 34.6873C304.581 35.0271 305.023 35.5164 305.322 36.155C305.621 36.7937 305.77 37.5613 305.77 38.4578V39.7849H300.066L300.048 39.8376C300.072 40.2947 300.174 40.7019 300.356 41.0593C300.538 41.4109 300.793 41.6892 301.121 41.8943C301.449 42.0994 301.847 42.2019 302.316 42.2019C302.814 42.2019 303.268 42.1375 303.678 42.0085C304.094 41.8796 304.49 41.6892 304.865 41.4373L305.55 42.9226C305.169 43.239 304.686 43.5056 304.1 43.7224C303.514 43.9333 302.835 44.0388 302.061 44.0388ZM300.092 38.1589H303.52V37.9304C303.52 37.532 303.461 37.1863 303.344 36.8933C303.227 36.5945 303.045 36.363 302.799 36.199C302.559 36.0349 302.246 35.9529 301.859 35.9529C301.507 35.9529 301.206 36.0496 300.954 36.2429C300.702 36.4304 300.502 36.6882 300.356 37.0164C300.21 37.3386 300.113 37.7048 300.066 38.115L300.092 38.1589Z" fill="#EEF6FF"/>
<path d="M157.565 68.0388C156.312 68.0388 155.23 67.7751 154.322 67.2478C153.42 66.7205 152.726 65.9792 152.239 65.0242C151.753 64.0632 151.51 62.9382 151.51 61.6492V61.2712C151.51 60.0291 151.747 58.9275 152.222 57.9666C152.696 57.0056 153.376 56.2498 154.261 55.699C155.146 55.1482 156.2 54.8728 157.425 54.8728C158.286 54.8728 159.089 54.9988 159.833 55.2507C160.577 55.4968 161.233 55.8601 161.802 56.3406V59.364H160L159.754 57.4041C159.561 57.2634 159.347 57.1433 159.112 57.0437C158.884 56.9441 158.632 56.8679 158.356 56.8152C158.087 56.7625 157.794 56.7361 157.478 56.7361C156.728 56.7361 156.086 56.9236 155.553 57.2986C155.02 57.6677 154.609 58.1892 154.322 58.863C154.041 59.5369 153.9 60.3337 153.9 61.2537V61.6492C153.9 62.5808 154.05 63.3865 154.349 64.0662C154.647 64.7458 155.072 65.2703 155.623 65.6394C156.18 66.0027 156.842 66.1843 157.609 66.1843C157.99 66.1843 158.368 66.1433 158.743 66.0613C159.118 65.9734 159.452 65.8591 159.745 65.7185L160 63.9167H161.784V66.9138C161.292 67.2361 160.683 67.5056 159.956 67.7224C159.229 67.9333 158.433 68.0388 157.565 68.0388Z" fill="#EEF6FF"/>
<path d="M166.176 68.0388C165.221 68.0388 164.468 67.7898 163.917 67.2917C163.372 66.7878 163.1 66.0994 163.1 65.2263C163.1 64.3298 163.463 63.6033 164.19 63.0466C164.922 62.4841 165.977 62.2029 167.354 62.2029H168.707V61.4558C168.707 60.9753 168.564 60.5886 168.277 60.2957C167.996 60.0027 167.579 59.8562 167.029 59.8562C166.73 59.8562 166.46 59.8943 166.22 59.9705C165.986 60.0408 165.775 60.1433 165.587 60.2781L165.385 61.5525H163.645L163.627 59.1443C164.108 58.8513 164.635 58.6169 165.209 58.4412C165.789 58.2595 166.434 58.1687 167.143 58.1687C168.368 58.1687 169.331 58.4558 170.035 59.03C170.744 59.5984 171.098 60.4158 171.098 61.4822V65.5339C171.098 65.6628 171.098 65.7888 171.098 65.9119C171.104 66.0349 171.116 66.155 171.133 66.2722L172.109 66.4128V67.8542H169.077C169.012 67.6726 168.951 67.488 168.892 67.3005C168.839 67.1072 168.801 66.9138 168.778 66.7205C168.467 67.113 168.095 67.4324 167.662 67.6785C167.234 67.9187 166.739 68.0388 166.176 68.0388ZM166.765 66.2371C167.169 66.2371 167.547 66.1433 167.899 65.9558C168.256 65.7683 168.526 65.531 168.707 65.2439V63.697H167.345C166.73 63.697 166.264 63.8406 165.948 64.1277C165.637 64.4089 165.482 64.7429 165.482 65.1296C165.482 65.4812 165.593 65.7537 165.816 65.947C166.038 66.1404 166.355 66.2371 166.765 66.2371Z" fill="#EEF6FF"/>
<path d="M172.932 67.8542V66.4128L174.207 66.1492V60.0583L172.836 59.7947V58.3445H176.422L176.536 59.7156C176.852 59.2292 177.245 58.8513 177.714 58.5818C178.188 58.3064 178.724 58.1687 179.322 58.1687C180.277 58.1687 181.024 58.4705 181.563 59.074C182.108 59.6716 182.381 60.6121 182.381 61.8953V66.1492L183.655 66.4128V67.8542H178.812V66.4128L179.981 66.1492V61.9128C179.981 61.2332 179.846 60.7527 179.577 60.4714C179.307 60.1843 178.906 60.0408 178.373 60.0408C177.974 60.0408 177.626 60.1287 177.327 60.3044C177.034 60.4744 176.791 60.7175 176.597 61.0339V66.1492L177.722 66.4128V67.8542H172.932Z" fill="#EEF6FF"/>
<path d="M187.309 67.8542L184.329 59.9529L183.31 59.7947V58.3445H187.792V59.7947L186.746 59.9705L188.32 64.5144L188.539 65.2615H188.592L188.847 64.5144L190.499 59.9705L189.313 59.7947V58.3445H193.786V59.7947L192.74 59.9705L189.691 67.8542H187.309Z" fill="#EEF6FF"/>
<path d="M197.475 68.0388C196.52 68.0388 195.767 67.7898 195.216 67.2917C194.672 66.7878 194.399 66.0994 194.399 65.2263C194.399 64.3298 194.762 63.6033 195.489 63.0466C196.221 62.4841 197.276 62.2029 198.653 62.2029H200.006V61.4558C200.006 60.9753 199.863 60.5886 199.576 60.2957C199.295 60.0027 198.879 59.8562 198.328 59.8562C198.029 59.8562 197.759 59.8943 197.519 59.9705C197.285 60.0408 197.074 60.1433 196.886 60.2781L196.684 61.5525H194.944L194.926 59.1443C195.407 58.8513 195.934 58.6169 196.508 58.4412C197.089 58.2595 197.733 58.1687 198.442 58.1687C199.667 58.1687 200.63 58.4558 201.334 59.03C202.043 59.5984 202.397 60.4158 202.397 61.4822V65.5339C202.397 65.6628 202.397 65.7888 202.397 65.9119C202.403 66.0349 202.415 66.155 202.432 66.2722L203.408 66.4128V67.8542H200.376C200.311 67.6726 200.25 67.488 200.191 67.3005C200.138 67.1072 200.1 66.9138 200.077 66.7205C199.766 67.113 199.394 67.4324 198.961 67.6785C198.533 67.9187 198.038 68.0388 197.475 68.0388ZM198.064 66.2371C198.468 66.2371 198.846 66.1433 199.198 65.9558C199.555 65.7683 199.825 65.531 200.006 65.2439V63.697H198.644C198.029 63.697 197.563 63.8406 197.247 64.1277C196.936 64.4089 196.781 64.7429 196.781 65.1296C196.781 65.4812 196.892 65.7537 197.115 65.947C197.338 66.1404 197.654 66.2371 198.064 66.2371Z" fill="#EEF6FF"/>
<path d="M208.345 68.0388C207.647 68.0388 206.997 67.9744 206.394 67.8455C205.796 67.7107 205.21 67.5144 204.636 67.2566L204.609 64.655H206.297L206.631 66.0261C206.859 66.1316 207.1 66.2136 207.352 66.2722C207.604 66.3308 207.888 66.3601 208.204 66.3601C208.808 66.3601 209.232 66.2605 209.479 66.0613C209.73 65.8562 209.856 65.6013 209.856 65.2966C209.856 65.0037 209.725 64.7517 209.461 64.5408C209.197 64.324 208.688 64.1365 207.932 63.9783C206.801 63.738 205.969 63.3777 205.436 62.8972C204.902 62.4109 204.636 61.7898 204.636 61.0339C204.636 60.5066 204.771 60.0291 205.04 59.6013C205.315 59.1736 205.726 58.8308 206.271 58.573C206.815 58.3093 207.498 58.1775 208.318 58.1775C209.039 58.1775 209.687 58.2507 210.261 58.3972C210.841 58.5437 211.33 58.7312 211.729 58.9597L211.772 61.4734H210.094L209.821 60.2253C209.651 60.1023 209.452 60.0085 209.224 59.9441C208.995 59.8738 208.737 59.8386 208.45 59.8386C207.981 59.8386 207.615 59.9382 207.352 60.1375C207.094 60.3367 206.965 60.5886 206.965 60.8933C206.965 61.0691 207.009 61.2302 207.097 61.3767C207.185 61.5232 207.355 61.6609 207.606 61.7898C207.864 61.9128 208.239 62.03 208.731 62.1414C209.939 62.4167 210.809 62.783 211.342 63.24C211.881 63.697 212.15 64.3181 212.15 65.1033C212.15 65.9705 211.834 66.6765 211.201 67.2214C210.574 67.7664 209.622 68.0388 208.345 68.0388Z" fill="#EEF6FF"/>
</svg>
