<svg width="24" height="25" viewBox="0 0 24 25" fill="none" xmlns="http://www.w3.org/2000/svg">
<g clip-path="url(#clip0_99_765)">
<path d="M10 16.8542V15.8542H3.01L3 19.8542C3 20.9642 3.89 21.8542 5 21.8542H19C20.11 21.8542 21 20.9642 21 19.8542V15.8542H14V16.8542H10ZM20 7.85425H15.99V5.85425L13.99 3.85425H9.99L7.99 5.85425V7.85425H4C2.9 7.85425 2 8.75425 2 9.85425V12.8542C2 13.9642 2.89 14.8542 4 14.8542H10V12.8542H14V14.8542H20C21.1 14.8542 22 13.9542 22 12.8542V9.85425C22 8.75425 21.1 7.85425 20 7.85425ZM14 7.85425H10V5.85425H14V7.85425Z" fill="#B86F71"/>
</g>
<defs>
<clipPath id="clip0_99_765">
<rect width="24" height="24" fill="white" transform="translate(0 0.854248)"/>
</clipPath>
</defs>
</svg>
