<svg width="24" height="25" viewBox="0 0 24 25" fill="none" xmlns="http://www.w3.org/2000/svg">
<g clip-path="url(#clip0_99_792)">
<path d="M2 13.3542C2 10.3142 4.46 7.85425 7.5 7.85425H18C20.21 7.85425 22 9.64425 22 11.8542C22 14.0642 20.21 15.8542 18 15.8542H9.5C8.12 15.8542 7 14.7342 7 13.3542C7 11.9742 8.12 10.8542 9.5 10.8542H17V12.8542H9.41C8.86 12.8542 8.86 13.8542 9.41 13.8542H18C19.1 13.8542 20 12.9542 20 11.8542C20 10.7542 19.1 9.85425 18 9.85425H7.5C5.57 9.85425 4 11.4242 4 13.3542C4 15.2842 5.57 16.8542 7.5 16.8542H17V18.8542H7.5C4.46 18.8542 2 16.3942 2 13.3542Z" fill="#A583AB"/>
</g>
<defs>
<clipPath id="clip0_99_792">
<rect width="24" height="24" fill="white" transform="translate(0 0.854248)"/>
</clipPath>
</defs>
</svg>
