<svg width="24" height="25" viewBox="0 0 24 25" fill="none" xmlns="http://www.w3.org/2000/svg">
<g clip-path="url(#clip0_99_786)">
<path d="M15.904 13.9048L13.7827 16.0261L19.7789 22.0223L21.9002 19.901L15.904 13.9048Z" fill="#6D9CBA"/>
<path d="M17.5 10.8543C19.43 10.8543 21 9.2843 21 7.3543C21 6.7743 20.84 6.2343 20.59 5.7543L17.89 8.4543L16.4 6.9643L19.1 4.2643C18.62 4.0143 18.08 3.8543 17.5 3.8543C15.57 3.8543 14 5.4243 14 7.3543C14 7.7643 14.08 8.1543 14.21 8.5143L12.36 10.3643L10.58 8.5843L11.29 7.8743L9.87998 6.4643L12 4.3443C10.83 3.1743 8.92998 3.1743 7.75998 4.3443L4.21998 7.8843L5.62998 9.2943H2.80998L2.09998 10.0043L5.63998 13.5443L6.34998 12.8343V10.0043L7.75998 11.4143L8.46998 10.7043L10.25 12.4843L2.83998 19.8943L4.95998 22.0143L16.34 10.6443C16.7 10.7743 17.09 10.8543 17.5 10.8543Z" fill="#6D9CBA"/>
</g>
<defs>
<clipPath id="clip0_99_786">
<rect width="24" height="24" fill="white" transform="translate(0 0.854248)"/>
</clipPath>
</defs>
</svg>
