<svg width="24" height="25" viewBox="0 0 24 25" fill="none" xmlns="http://www.w3.org/2000/svg">
<g clip-path="url(#clip0_99_774)">
<path d="M11.99 2.85425C6.47 2.85425 2 7.33425 2 12.8542C2 18.3742 6.47 22.8542 11.99 22.8542C17.52 22.8542 22 18.3742 22 12.8542C22 7.33425 17.52 2.85425 11.99 2.85425ZM18.92 8.85425H15.97C15.65 7.60425 15.19 6.40425 14.59 5.29425C16.43 5.92425 17.96 7.20425 18.92 8.85425ZM12 4.89425C12.83 6.09425 13.48 7.42425 13.91 8.85425H10.09C10.52 7.42425 11.17 6.09425 12 4.89425ZM4.26 14.8542C4.1 14.2142 4 13.5442 4 12.8542C4 12.1642 4.1 11.4942 4.26 10.8542H7.64C7.56 11.5142 7.5 12.1742 7.5 12.8542C7.5 13.5342 7.56 14.1942 7.64 14.8542H4.26ZM5.08 16.8542H8.03C8.35 18.1042 8.81 19.3042 9.41 20.4142C7.57 19.7842 6.04 18.5142 5.08 16.8542ZM8.03 8.85425H5.08C6.04 7.19425 7.57 5.92425 9.41 5.29425C8.81 6.40425 8.35 7.60425 8.03 8.85425ZM12 20.8142C11.17 19.6142 10.52 18.2842 10.09 16.8542H13.91C13.48 18.2842 12.83 19.6142 12 20.8142ZM14.34 14.8542H9.66C9.57 14.1942 9.5 13.5342 9.5 12.8542C9.5 12.1742 9.57 11.5042 9.66 10.8542H14.34C14.43 11.5042 14.5 12.1742 14.5 12.8542C14.5 13.5342 14.43 14.1942 14.34 14.8542ZM14.59 20.4142C15.19 19.3042 15.65 18.1042 15.97 16.8542H18.92C17.96 18.5042 16.43 19.7842 14.59 20.4142ZM16.36 14.8542C16.44 14.1942 16.5 13.5342 16.5 12.8542C16.5 12.1742 16.44 11.5142 16.36 10.8542H19.74C19.9 11.4942 20 12.1642 20 12.8542C20 13.5442 19.9 14.2142 19.74 14.8542H16.36Z" fill="#B86F71"/>
</g>
<defs>
<clipPath id="clip0_99_774">
<rect width="24" height="24" fill="white" transform="translate(0 0.854248)"/>
</clipPath>
</defs>
</svg>
