<svg width="24" height="25" viewBox="0 0 24 25" fill="none" xmlns="http://www.w3.org/2000/svg">
<g clip-path="url(#clip0_99_768)">
<path d="M20.5 11.8542H19V7.85425C19 6.75425 18.1 5.85425 17 5.85425H13V4.35425C13 2.97425 11.88 1.85425 10.5 1.85425C9.12 1.85425 8 2.97425 8 4.35425V5.85425H4C2.9 5.85425 2.01 6.75425 2.01 7.85425V11.6542H3.5C4.99 11.6542 6.2 12.8642 6.2 14.3542C6.2 15.8442 4.99 17.0542 3.5 17.0542H2V20.8542C2 21.9542 2.9 22.8542 4 22.8542H7.8V21.3542C7.8 19.8642 9.01 18.6542 10.5 18.6542C11.99 18.6542 13.2 19.8642 13.2 21.3542V22.8542H17C18.1 22.8542 19 21.9542 19 20.8542V16.8542H20.5C21.88 16.8542 23 15.7342 23 14.3542C23 12.9742 21.88 11.8542 20.5 11.8542Z" fill="#B86F71"/>
</g>
<defs>
<clipPath id="clip0_99_768">
<rect width="24" height="24" fill="white" transform="translate(0 0.854248)"/>
</clipPath>
</defs>
</svg>
