<svg width="24" height="25" viewBox="0 0 24 25" fill="none" xmlns="http://www.w3.org/2000/svg">
<g clip-path="url(#clip0_99_789)">
<path d="M20 8.85425H17.19C16.74 8.07425 16.12 7.40425 15.37 6.89425L17 5.26425L15.59 3.85425L13.42 6.02425C12.96 5.91425 12.49 5.85425 12 5.85425C11.51 5.85425 11.04 5.91425 10.59 6.02425L8.41 3.85425L7 5.26425L8.62 6.89425C7.88 7.40425 7.26 8.07425 6.81 8.85425H4V10.8542H6.09C6.04 11.1842 6 11.5142 6 11.8542V12.8542H4V14.8542H6V15.8542C6 16.1942 6.04 16.5242 6.09 16.8542H4V18.8542H6.81C7.85 20.6442 9.78 21.8542 12 21.8542C14.22 21.8542 16.15 20.6442 17.19 18.8542H20V16.8542H17.91C17.96 16.5242 18 16.1942 18 15.8542V14.8542H20V12.8542H18V11.8542C18 11.5142 17.96 11.1842 17.91 10.8542H20V8.85425ZM14 16.8542H10V14.8542H14V16.8542ZM14 12.8542H10V10.8542H14V12.8542Z" fill="#A583AB"/>
</g>
<defs>
<clipPath id="clip0_99_789">
<rect width="24" height="24" fill="white" transform="translate(0 0.854248)"/>
</clipPath>
</defs>
</svg>
