<svg width="24" height="25" viewBox="0 0 24 25" fill="none" xmlns="http://www.w3.org/2000/svg">
<g clip-path="url(#clip0_99_771)">
<path d="M11 14.8542H9C9 9.88425 13.03 5.85425 18 5.85425V7.85425C14.13 7.85425 11 10.9842 11 14.8542ZM18 11.8542V9.85425C15.24 9.85425 13 12.0942 13 14.8542H15C15 13.1942 16.34 11.8542 18 11.8542ZM7 4.85425C7 3.74425 6.11 2.85425 5 2.85425C3.89 2.85425 3 3.74425 3 4.85425C3 5.96425 3.89 6.85425 5 6.85425C6.11 6.85425 7 5.96425 7 4.85425ZM11.45 5.35425H9.45C9.21 6.77425 7.99 7.85425 6.5 7.85425H3.5C2.67 7.85425 2 8.52425 2 9.35425V11.8542H8V9.59425C9.86 9.00425 11.25 7.36425 11.45 5.35425ZM19 17.8542C20.11 17.8542 21 16.9642 21 15.8542C21 14.7442 20.11 13.8542 19 13.8542C17.89 13.8542 17 14.7442 17 15.8542C17 16.9642 17.89 17.8542 19 17.8542ZM20.5 18.8542H17.5C16.01 18.8542 14.79 17.7742 14.55 16.3542H12.55C12.75 18.3642 14.14 20.0042 16 20.5942V22.8542H22V20.3542C22 19.5242 21.33 18.8542 20.5 18.8542Z" fill="#B86F71"/>
</g>
<defs>
<clipPath id="clip0_99_771">
<rect width="24" height="24" fill="white" transform="translate(0 0.854248)"/>
</clipPath>
</defs>
</svg>
