<svg width="24" height="25" viewBox="0 0 24 25" fill="none" xmlns="http://www.w3.org/2000/svg">
<g clip-path="url(#clip0_99_780)">
<path fill-rule="evenodd" clip-rule="evenodd" d="M16.67 13.9843C18.04 14.9143 19 16.1743 19 17.8543V20.8543H23V17.8543C23 15.6743 19.43 14.3843 16.67 13.9843Z" fill="#91CB67"/>
<path d="M9 12.8542C11.2091 12.8542 13 11.0634 13 8.85425C13 6.64511 11.2091 4.85425 9 4.85425C6.79086 4.85425 5 6.64511 5 8.85425C5 11.0634 6.79086 12.8542 9 12.8542Z" fill="#91CB67"/>
<path fill-rule="evenodd" clip-rule="evenodd" d="M15 12.8542C17.21 12.8542 19 11.0642 19 8.85425C19 6.64425 17.21 4.85425 15 4.85425C14.53 4.85425 14.09 4.95425 13.67 5.09425C14.5 6.12425 15 7.43425 15 8.85425C15 10.2742 14.5 11.5842 13.67 12.6142C14.09 12.7542 14.53 12.8542 15 12.8542Z" fill="#91CB67"/>
<path fill-rule="evenodd" clip-rule="evenodd" d="M9 13.8542C6.33 13.8542 1 15.1942 1 17.8542V20.8542H17V17.8542C17 15.1942 11.67 13.8542 9 13.8542Z" fill="#91CB67"/>
</g>
<defs>
<clipPath id="clip0_99_780">
<rect width="24" height="24" fill="white" transform="translate(0 0.854248)"/>
</clipPath>
</defs>
</svg>
