<svg width="24" height="25" viewBox="0 0 24 25" fill="none" xmlns="http://www.w3.org/2000/svg">
<g clip-path="url(#clip0_99_783)">
<path d="M23 8.85425C23 9.95425 22.1 10.8542 21 10.8542C20.82 10.8542 20.65 10.8342 20.49 10.7842L16.93 14.3342C16.98 14.4942 17 14.6742 17 14.8542C17 15.9542 16.1 16.8542 15 16.8542C13.9 16.8542 13 15.9542 13 14.8542C13 14.6742 13.02 14.4942 13.07 14.3342L10.52 11.7842C10.36 11.8342 10.18 11.8542 10 11.8542C9.82 11.8542 9.64 11.8342 9.48 11.7842L4.93 16.3442C4.98 16.5042 5 16.6742 5 16.8542C5 17.9542 4.1 18.8542 3 18.8542C1.9 18.8542 1 17.9542 1 16.8542C1 15.7542 1.9 14.8542 3 14.8542C3.18 14.8542 3.35 14.8742 3.51 14.9242L8.07 10.3742C8.02 10.2142 8 10.0342 8 9.85425C8 8.75425 8.9 7.85425 10 7.85425C11.1 7.85425 12 8.75425 12 9.85425C12 10.0342 11.98 10.2142 11.93 10.3742L14.48 12.9242C14.64 12.8742 14.82 12.8542 15 12.8542C15.18 12.8542 15.36 12.8742 15.52 12.9242L19.07 9.36425C19.02 9.20425 19 9.03425 19 8.85425C19 7.75425 19.9 6.85425 21 6.85425C22.1 6.85425 23 7.75425 23 8.85425Z" fill="#91CB67"/>
</g>
<defs>
<clipPath id="clip0_99_783">
<rect width="24" height="24" fill="white" transform="translate(0 0.854248)"/>
</clipPath>
</defs>
</svg>
